<mxfile host="65bd71144e">
    <diagram id="dg40tJPEcU_0fhGy5JJB" name="Page-1">
        <mxGraphModel dx="2200" dy="1065" grid="0" gridSize="10" guides="1" tooltips="1" connect="1" arrows="1" fold="1" page="1" pageScale="1" pageWidth="3300" pageHeight="4681" background="#ffffff" math="0" shadow="0">
            <root>
                <mxCell id="0"/>
                <mxCell id="1" parent="0"/>
                <mxCell id="31" value="" style="whiteSpace=wrap;html=1;fillColor=none;strokeColor=#333333;rounded=1;strokeWidth=2;" vertex="1" parent="1">
                    <mxGeometry x="909" y="147.99999999999994" width="623" height="265" as="geometry"/>
                </mxCell>
                <mxCell id="2" value="" style="whiteSpace=wrap;html=1;fillColor=none;strokeColor=#333333;rounded=1;strokeWidth=2;" vertex="1" parent="1">
                    <mxGeometry x="911" y="620.55" width="623" height="265" as="geometry"/>
                </mxCell>
                <mxCell id="49" style="edgeStyle=none;rounded=0;hachureGap=4;html=1;exitX=0.5;exitY=0;exitDx=0;exitDy=0;entryX=0.75;entryY=1;entryDx=0;entryDy=0;strokeColor=#000000;fontFamily=Helvetica;fontSize=16;fontColor=#000000;strokeWidth=3;" edge="1" parent="1" source="15" target="45">
                    <mxGeometry relative="1" as="geometry"/>
                </mxCell>
                <mxCell id="15" value="" style="whiteSpace=wrap;html=1;rounded=1;strokeColor=#333333;strokeWidth=2;fontSize=18;fontColor=#000000;fillColor=none;" vertex="1" parent="1">
                    <mxGeometry x="1388" y="701.5" width="140" height="133" as="geometry"/>
                </mxCell>
                <mxCell id="19" style="edgeStyle=none;html=1;entryX=0;entryY=0.5;entryDx=0;entryDy=0;fontSize=18;fontColor=#000000;strokeColor=#000000;strokeWidth=3;" edge="1" parent="1" source="7" target="14">
                    <mxGeometry relative="1" as="geometry"/>
                </mxCell>
                <mxCell id="7" value="" style="whiteSpace=wrap;html=1;rounded=1;strokeColor=#333333;strokeWidth=2;fontSize=18;fontColor=#000000;fillColor=none;" vertex="1" parent="1">
                    <mxGeometry x="921" y="698.5" width="188" height="133" as="geometry"/>
                </mxCell>
                <mxCell id="3" value="OpenSeach" style="html=1;verticalLabelPosition=bottom;align=center;labelBackgroundColor=#ffffff;verticalAlign=top;strokeWidth=2;strokeColor=#0080F0;shadow=0;dashed=0;shape=mxgraph.ios7.icons.data;rounded=1;fillColor=none;fontColor=#000000;fontSize=16;" vertex="1" parent="1">
                    <mxGeometry x="1423" y="724.45" width="62" height="82.1" as="geometry"/>
                </mxCell>
                <mxCell id="5" value="Knowledge Base" style="text;strokeColor=none;align=center;fillColor=none;html=1;verticalAlign=middle;whiteSpace=wrap;rounded=0;strokeWidth=2;fontColor=#000000;fontSize=23;" vertex="1" parent="1">
                    <mxGeometry x="1107.87" y="622.5" width="225.25" height="30" as="geometry"/>
                </mxCell>
                <mxCell id="6" value="" style="sketch=0;outlineConnect=0;fontColor=#232F3E;gradientColor=none;fillColor=#3F8624;strokeColor=none;dashed=0;verticalLabelPosition=bottom;verticalAlign=top;align=center;html=1;fontSize=12;fontStyle=0;aspect=fixed;pointerEvents=1;shape=mxgraph.aws4.bucket_with_objects;rounded=1;strokeWidth=2;" vertex="1" parent="1">
                    <mxGeometry x="998.65" y="794.5" width="32.69" height="34" as="geometry"/>
                </mxCell>
                <mxCell id="9" value="" style="verticalLabelPosition=bottom;html=1;verticalAlign=top;align=center;strokeColor=none;fillColor=#00BEF2;shape=mxgraph.azure.cloud_services_configuration_file;pointerEvents=1;rounded=1;strokeWidth=2;fontSize=18;fontColor=#000000;" vertex="1" parent="1">
                    <mxGeometry x="991.25" y="740.5" width="47.5" height="50" as="geometry"/>
                </mxCell>
                <mxCell id="11" value="" style="verticalLabelPosition=bottom;html=1;verticalAlign=top;align=center;strokeColor=none;fillColor=#00BEF2;shape=mxgraph.azure.cloud_services_configuration_file;pointerEvents=1;rounded=1;strokeWidth=2;fontSize=18;fontColor=#000000;" vertex="1" parent="1">
                    <mxGeometry x="941" y="740.5" width="47.5" height="50" as="geometry"/>
                </mxCell>
                <mxCell id="12" value="" style="verticalLabelPosition=bottom;html=1;verticalAlign=top;align=center;strokeColor=none;fillColor=#00BEF2;shape=mxgraph.azure.cloud_services_configuration_file;pointerEvents=1;rounded=1;strokeWidth=2;fontSize=18;fontColor=#000000;" vertex="1" parent="1">
                    <mxGeometry x="1042" y="740.5" width="47.5" height="50" as="geometry"/>
                </mxCell>
                <mxCell id="13" value="Data Source" style="text;strokeColor=none;align=center;fillColor=none;html=1;verticalAlign=middle;whiteSpace=wrap;rounded=0;strokeWidth=2;fontColor=#000000;fontSize=18;" vertex="1" parent="1">
                    <mxGeometry x="938" y="695.5" width="144" height="30" as="geometry"/>
                </mxCell>
                <mxCell id="14" value="" style="whiteSpace=wrap;html=1;rounded=1;strokeColor=#333333;strokeWidth=2;fontSize=18;fontColor=#000000;fillColor=none;" vertex="1" parent="1">
                    <mxGeometry x="1163" y="698.5" width="60" height="133" as="geometry"/>
                </mxCell>
                <mxCell id="16" value="" style="verticalLabelPosition=bottom;html=1;verticalAlign=top;align=center;strokeColor=none;fillColor=#00BEF2;shape=mxgraph.azure.cloud_services_configuration_file;pointerEvents=1;rounded=1;strokeWidth=2;fontSize=18;fontColor=#000000;" vertex="1" parent="1">
                    <mxGeometry x="1169.25" y="704.5" width="47.5" height="50" as="geometry"/>
                </mxCell>
                <mxCell id="17" value="" style="verticalLabelPosition=bottom;html=1;verticalAlign=top;align=center;strokeColor=none;fillColor=#00BEF2;shape=mxgraph.azure.cloud_services_configuration_file;pointerEvents=1;rounded=1;strokeWidth=2;fontSize=18;fontColor=#000000;" vertex="1" parent="1">
                    <mxGeometry x="1169.25" y="763.5" width="47.5" height="50" as="geometry"/>
                </mxCell>
                <mxCell id="25" style="edgeStyle=none;html=1;entryX=0;entryY=0.5;entryDx=0;entryDy=0;strokeColor=#000000;strokeWidth=3;fontSize=18;fontColor=#000000;" edge="1" parent="1" source="18" target="15">
                    <mxGeometry relative="1" as="geometry"/>
                </mxCell>
                <mxCell id="18" value="Titan Embeddings&lt;br style=&quot;font-size: 17px;&quot;&gt;G1 TextV1.2" style="sketch=0;outlineConnect=0;fontColor=#232F3E;gradientColor=none;fillColor=#067F68;strokeColor=none;dashed=0;verticalLabelPosition=bottom;verticalAlign=top;align=center;html=1;fontSize=17;fontStyle=0;aspect=fixed;pointerEvents=1;shape=mxgraph.aws4.sagemaker_model;rounded=1;strokeWidth=2;" vertex="1" parent="1">
                    <mxGeometry x="1270" y="728.5" width="78" height="78" as="geometry"/>
                </mxCell>
                <mxCell id="20" style="edgeStyle=none;html=1;entryX=0;entryY=0.5;entryDx=0;entryDy=0;fontSize=18;fontColor=#000000;strokeColor=#000000;strokeWidth=3;" edge="1" parent="1">
                    <mxGeometry relative="1" as="geometry">
                        <mxPoint x="1222" y="764.5" as="sourcePoint"/>
                        <mxPoint x="1271" y="764.5" as="targetPoint"/>
                    </mxGeometry>
                </mxCell>
                <mxCell id="29" value="" style="whiteSpace=wrap;html=1;rounded=1;strokeColor=#333333;strokeWidth=2;fontSize=18;fontColor=#000000;fillColor=none;" vertex="1" parent="1">
                    <mxGeometry x="960.25" y="216.5" width="140" height="133" as="geometry"/>
                </mxCell>
                <mxCell id="40" style="edgeStyle=none;html=1;strokeColor=#000000;strokeWidth=3;fontSize=23;fontColor=#000000;" edge="1" parent="1" source="30" target="39">
                    <mxGeometry relative="1" as="geometry"/>
                </mxCell>
                <mxCell id="30" value="Knowledge Base" style="html=1;verticalLabelPosition=bottom;align=center;labelBackgroundColor=#ffffff;verticalAlign=top;strokeWidth=2;strokeColor=#0080F0;shadow=0;dashed=0;shape=mxgraph.ios7.icons.data;rounded=1;fillColor=none;fontColor=#000000;fontSize=16;" vertex="1" parent="1">
                    <mxGeometry x="999.25" y="234.45000000000005" width="62" height="82.1" as="geometry"/>
                </mxCell>
                <mxCell id="32" value="Agent For Bedrock" style="text;strokeColor=none;align=center;fillColor=none;html=1;verticalAlign=middle;whiteSpace=wrap;rounded=0;strokeWidth=2;fontColor=#000000;fontSize=23;" vertex="1" parent="1">
                    <mxGeometry x="1112.99" y="148" width="215" height="30" as="geometry"/>
                </mxCell>
                <mxCell id="53" style="edgeStyle=none;rounded=0;sketch=0;hachureGap=4;jiggle=2;curveFitting=1;html=1;strokeColor=#000000;strokeWidth=3;fontFamily=Helvetica;fontSize=16;fontColor=#000000;" edge="1" parent="1" source="33">
                    <mxGeometry relative="1" as="geometry">
                        <mxPoint x="1799.1538461538462" y="283" as="targetPoint"/>
                    </mxGeometry>
                </mxCell>
                <mxCell id="33" value="" style="whiteSpace=wrap;html=1;rounded=1;strokeColor=#333333;strokeWidth=2;fontSize=18;fontColor=#000000;fillColor=none;" vertex="1" parent="1">
                    <mxGeometry x="1162" y="216.5" width="326" height="133" as="geometry"/>
                </mxCell>
                <mxCell id="34" value="SendEmail" style="sketch=0;points=[[0,0,0],[0.25,0,0],[0.5,0,0],[0.75,0,0],[1,0,0],[0,1,0],[0.25,1,0],[0.5,1,0],[0.75,1,0],[1,1,0],[0,0.25,0],[0,0.5,0],[0,0.75,0],[1,0.25,0],[1,0.5,0],[1,0.75,0]];outlineConnect=0;fontColor=#232F3E;gradientColor=#F78E04;gradientDirection=north;fillColor=#D05C17;strokeColor=#ffffff;dashed=0;verticalLabelPosition=bottom;verticalAlign=top;align=center;html=1;fontSize=16;fontStyle=0;aspect=fixed;shape=mxgraph.aws4.resourceIcon;resIcon=mxgraph.aws4.lambda;rounded=1;strokeWidth=2;" vertex="1" parent="1">
                    <mxGeometry x="1362" y="238.54999999999998" width="78" height="78" as="geometry"/>
                </mxCell>
                <mxCell id="37" value="" style="strokeColor=#dddddd;shadow=1;strokeWidth=1;rounded=1;absoluteArcSize=1;arcSize=2;fontSize=23;fontColor=#000000;fillColor=none;" vertex="1" parent="1">
                    <mxGeometry x="1178.24" y="262.01" width="160" height="49" as="geometry"/>
                </mxCell>
                <mxCell id="38" value="&lt;font style=&quot;font-size: 22px;&quot;&gt;Schema&lt;/font&gt;" style="sketch=0;dashed=0;connectable=0;html=1;fillColor=#757575;strokeColor=none;shape=mxgraph.gcp2.logs_api;part=1;labelPosition=right;verticalLabelPosition=middle;align=left;verticalAlign=middle;spacingLeft=5;fontSize=12;rounded=1;strokeWidth=2;fontColor=#000000;" vertex="1" parent="37">
                    <mxGeometry y="0.5" width="32" height="32" relative="1" as="geometry">
                        <mxPoint x="5" y="-16" as="offset"/>
                    </mxGeometry>
                </mxCell>
                <mxCell id="39" value="Titan Embeddings&lt;br style=&quot;font-size: 17px;&quot;&gt;G1 TextV1.2" style="sketch=0;outlineConnect=0;fontColor=#232F3E;gradientColor=none;fillColor=#067F68;strokeColor=none;dashed=0;verticalLabelPosition=bottom;verticalAlign=top;align=center;html=1;fontSize=17;fontStyle=0;aspect=fixed;pointerEvents=1;shape=mxgraph.aws4.sagemaker_model;rounded=1;strokeWidth=2;" vertex="1" parent="1">
                    <mxGeometry x="991" y="464.5" width="78" height="78" as="geometry"/>
                </mxCell>
                <mxCell id="44" style="edgeStyle=none;html=1;strokeColor=#000000;strokeWidth=3;fontSize=23;fontColor=#000000;" edge="1" parent="1">
                    <mxGeometry relative="1" as="geometry">
                        <mxPoint x="1030.3939798206281" y="537.5" as="sourcePoint"/>
                        <mxPoint x="1030" y="625.5" as="targetPoint"/>
                    </mxGeometry>
                </mxCell>
                <mxCell id="51" style="edgeStyle=none;rounded=0;sketch=0;hachureGap=4;jiggle=2;curveFitting=1;html=1;exitX=1;exitY=0.5;exitDx=0;exitDy=0;strokeColor=#000000;strokeWidth=3;fontFamily=Helvetica;fontSize=16;fontColor=#000000;" edge="1" parent="1" source="45">
                    <mxGeometry relative="1" as="geometry">
                        <mxPoint x="1671.4615384615386" y="520.0249999999999" as="targetPoint"/>
                    </mxGeometry>
                </mxCell>
                <mxCell id="45" value="" style="whiteSpace=wrap;html=1;fillColor=none;strokeColor=#333333;rounded=1;strokeWidth=2;" vertex="1" parent="1">
                    <mxGeometry x="1232" y="433.5" width="300" height="173.05" as="geometry"/>
                </mxCell>
                <mxCell id="46" value="Titan Embeddings&lt;br style=&quot;font-size: 17px;&quot;&gt;G1 TextV1.2" style="sketch=0;outlineConnect=0;fontColor=#232F3E;gradientColor=none;fillColor=#067F68;strokeColor=none;dashed=0;verticalLabelPosition=bottom;verticalAlign=top;align=center;html=1;fontSize=17;fontStyle=0;aspect=fixed;pointerEvents=1;shape=mxgraph.aws4.sagemaker_model;rounded=1;strokeWidth=2;" vertex="1" parent="1">
                    <mxGeometry x="1277" y="481.02" width="78" height="78" as="geometry"/>
                </mxCell>
                <mxCell id="47" value="Augmentede&lt;br style=&quot;font-size: 16px;&quot;&gt;&amp;nbsp;Prompt" style="sketch=0;html=1;verticalAlign=top;labelPosition=center;verticalLabelPosition=bottom;align=center;spacingTop=-6;fontSize=16;fontStyle=1;fontColor=#000000;shape=image;aspect=fixed;imageAspect=0;image=data:image/svg+xml,PHN2ZyB4bWxucz0iaHR0cDovL3d3dy53My5vcmcvMjAwMC9zdmciIGlkPSJzdmcyNDYzMyIgdmVyc2lvbj0iMS4xIiB2aWV3Qm94PSIwIDAgMjA4LjcxMzM2IDI1OC45NjYwOSIgaGVpZ2h0PSIyNTguOTY2MDltbSIgd2lkdGg9IjIwOC43MTMzNm1tIj4mI3hhOyAgJiN4YTsgIDxkZWZzIGlkPSJkZWZzMjQ2MzAiLz4mI3hhOyAgPGcgdHJhbnNmb3JtPSJ0cmFuc2xhdGUoLTMuMzk0NjI0OCwtMTcuODEwMjgyKSIgaWQ9ImxheWVyMSI+JiN4YTsgICAgPHBhdGggdHJhbnNmb3JtPSJzY2FsZSgwLjI2NDU4MzMzKSIgZD0ibSAxMTIuNDcwNyw2Ny4zMTQ0NTMgYyAtNTguMzI5NTUyLDAgLTk5LjY0MDYyMiw0MS4wMzc2NDcgLTk5LjY0MDYyMiwxMDYuODUxNTY3IHYgNzc0LjE4NzUgYyAwLDU2LjMxMzc4IDQzLjI2NjU5Niw5Ny43MzA0OCAxMDEuMjc3MzQyLDk3LjczMDQ4IEggNDEwLjA5OTYxIFYgOTQ3LjUwNTg2IEggMTA5LjM4MjgxIFYgMTYzLjIxODc1IGggMzAwLjcxNjggViA2Ny4zMTQ0NTMgWiBtIDQ3MS43MjA3MSwyOC43NzczNDQgYSA2OS44ODQ0ODksNjkuODg0NDg5IDAgMCAwIC02OS44ODQ3Nyw2OS44ODQ3NjMgNjkuODg0NDg5LDY5Ljg4NDQ4OSAwIDAgMCA0OS4wNjQ0NSw2Ni43MDExNyB2IDc2Ljg4ODY4IGMgMCwzMi4xNzM1NCAtMy4wMDI0OSw1NC4yMDgzNiAtOS4wMDU4Niw2NC4zNDc2NSAtNi4wMDMzNiwxMC4xMzkzIC0xNC4wMTI0MiwxNS4yOTY4OCAtNDIuMjM4MjgsMTUuMjk2ODggaCAtNDkuMTQyNTcgdiAzOS45OTQxNCBoIDQ5LjE0MjU3IGMgMzUuMzA1MSwwIDYyLjkxMzc2LC0xMS43MTI1MiA3Ni42NTIzNSwtMzQuOTE2MDIgMTMuNzM4NTgsLTIzLjIwMzU1IDE0LjU5Mzc1LC01MC45ODc2OCAxNC41OTM3NSwtODQuNzIyNjUgViAyMzMuMTM0NzcgQSA2OS44ODQ0ODksNjkuODg0NDg5IDAgMCAwIDY1NC4wNzQyMiwxNjUuOTc2NTYgNjkuODg0NDg5LDY5Ljg4NDQ4OSAwIDAgMCA1ODQuMTkxNDEsOTYuMDkxNzk3IFogTSAyMDkuMTA3NDIsMzU5Ljc5Njg4IHYgOTYuNjM2NzEgaCAyMDAuOTE3OTcgdiAtOTYuNjM2NzEgeiBtIDUyMi42Nzc3NCwyOC42OTMzNSBhIDY5Ljg4NDQ4OSw2OS44ODQ0ODkgMCAwIDAgLTY5Ljg4NDc3LDY5Ljg4NDc3IDY5Ljg4NDQ4OSw2OS44ODQ0ODkgMCAwIDAgNDQuNTMzMiw2NS4xMTkxNCBjIC0wLjgyMjcyLDI4LjAzMTA0IC04LjIxNjMsNDAuMDcxOTggLTIwLjgxODM2LDQ4LjQ3NjU2IC0xMy4zODU1Myw4LjkyNzE3IC0zNy43MTQ3NCwxMy4zOTg0NCAtNzEuMjc5MjksMTMuMzk4NDQgSCA0NjMuNjY0MDYgdiAzOS45OTQxNCBoIDE1MC42NzE4OCBjIDM2LjUyOTQzLDAgNjguMjkxOTIsLTMuMzI0MjMgOTMuNDY4NzUsLTIwLjExNTIzIDIzLjMyMzQ4LC0xNS41NTQ5NiAzNi42MzkxNywtNDIuOTc3MzEgMzguNDc0NjEsLTc4LjU0MTAyIEEgNjkuODg0NDg5LDY5Ljg4NDQ4OSAwIDAgMCA4MDEuNjY3OTcsNDU4LjM3NSA2OS44ODQ0ODksNjkuODg0NDg5IDAgMCAwIDczMS43ODUxNiwzODguNDkwMjMgWiBNIDIwOS4xMDc0Miw1NTYuNDgyNDIgdiA5Ni42MzY3MiBoIDIwMC45MTc5NyB2IC05Ni42MzY3MiB6IG0gMCwxOTYuNjg3NSB2IDk2LjYzNjcyIGggMjAwLjkxNzk3IHYgLTk2LjYzNjcyIHogbSAyNTQuOTc2NTYsMjcuNTQ2ODggdiAzOS45OTQxNCBoIDk4LjU5OTYxIGMgMzIuMzE0MjUsMCA1NS40NDQxMiwyLjUyNzk1IDY2LjIzMDQ3LDguMDAxOTUgNS4zOTMxNiwyLjczNzAyIDguMDg0ODgsNS4zNTUzMiAxMC41NDI5NywxMC4yMzI0MiAyLjQ1ODA5LDQuODc3MTQgNC40MDYyNSwxMi43Nzc2OCA0LjQwNjI1LDI1LjAzMTI1IHYgMTkuODE4MzYgYSA2OS44ODQ0ODksNjkuODg0NDg5IDAgMCAwIC00OS43MjI2Niw2Ni44OTY0OSA2OS44ODQ0ODksNjkuODg0NDg5IDAgMCAwIDY5Ljg4NDc3LDY5Ljg4NDc5IDY5Ljg4NDQ4OSw2OS44ODQ0ODkgMCAwIDAgNjkuODg0NzcsLTY5Ljg4NDc5IDY5Ljg4NDQ4OSw2OS44ODQ0ODkgMCAwIDAgLTUwLjA0NDkzLC02Ni45ODI0MyB2IC0xOS43MzI0MiBjIDAsLTE2LjM2ODgzIC0yLjQ2MjIsLTMwLjY4NTUgLTguNjg3NSwtNDMuMDM3MTEgLTYuMjI1MjYsLTEyLjM1MTYxIC0xNi40OTAxNywtMjEuOTczMDIgLTI4LjE2MjExLC0yNy44OTY0OCBDIDYyMy42NzE3NSw3ODEuMTk2MDggNTk2LjIxNjcsNzgwLjcxNjggNTYyLjY4MzU5LDc4MC43MTY4IFoiIHN0eWxlPSJjb2xvcjojMDAwMDAwO29wYWNpdHk6MTtmaWxsOiM1OTg2ZjI7ZmlsbC1vcGFjaXR5OjE7c3Ryb2tlLXdpZHRoOjM5Ljk5OTk7LWlua3NjYXBlLXN0cm9rZTpub25lIiBpZD0icGF0aDI0NzYyIi8+JiN4YTsgIDwvZz4mI3hhOzwvc3ZnPg==;hachureGap=4;jiggle=2;curveFitting=1;fontFamily=Helvetica;" vertex="1" parent="1">
                    <mxGeometry x="1423" y="495.5" width="34" height="42" as="geometry"/>
                </mxCell>
                <mxCell id="52" style="edgeStyle=none;rounded=0;sketch=0;hachureGap=4;jiggle=2;curveFitting=1;html=1;exitX=1;exitY=0.5;exitDx=0;exitDy=0;strokeColor=#000000;strokeWidth=3;fontFamily=Helvetica;fontSize=16;fontColor=#000000;" edge="1" parent="1">
                    <mxGeometry relative="1" as="geometry">
                        <mxPoint x="1532" y="320.46499999999986" as="targetPoint"/>
                        <mxPoint x="1671.4615384615386" y="320.46499999999986" as="sourcePoint"/>
                    </mxGeometry>
                </mxCell>
                <mxCell id="54" value="" style="sketch=0;outlineConnect=0;fontColor=#232F3E;gradientColor=none;fillColor=#BF0816;strokeColor=none;dashed=0;verticalLabelPosition=bottom;verticalAlign=top;align=center;html=1;fontSize=12;fontStyle=0;aspect=fixed;shape=mxgraph.aws4.email;hachureGap=4;jiggle=2;curveFitting=1;fontFamily=Helvetica;" vertex="1" parent="1">
                    <mxGeometry x="1804" y="239.45" width="78" height="69" as="geometry"/>
                </mxCell>
                <mxCell id="55" value="" style="shape=image;verticalLabelPosition=bottom;labelBackgroundColor=default;verticalAlign=top;aspect=fixed;imageAspect=0;image=data:image/png,iVBORw0KGgoAAAANSUhEUgAAAU4AAAFsCAYAAACjN1BUAAABdWlDQ1BrQ0dDb2xvclNwYWNlRGlzcGxheVAzAAAokXWQvUvDUBTFT6tS0DqIDh0cMolD1NIKdnFoKxRFMFQFq1OafgltfCQpUnETVyn4H1jBWXCwiFRwcXAQRAcR3Zw6KbhoeN6XVNoi3sfl/Ticc7lcwBtQGSv2AijplpFMxKS11Lrke4OHnlOqZrKooiwK/v276/PR9d5PiFlNu3YQ2U9cl84ul3aeAlN//V3Vn8maGv3f1EGNGRbgkYmVbYsJ3iUeMWgp4qrgvMvHgtMunzuelWSc+JZY0gpqhrhJLKc79HwHl4plrbWD2N6f1VeXxRzqUcxhEyYYilBRgQQF4X/8044/ji1yV2BQLo8CLMpESRETssTz0KFhEjJxCEHqkLhz634PrfvJbW3vFZhtcM4v2tpCAzidoZPV29p4BBgaAG7qTDVUR+qh9uZywPsJMJgChu8os2HmwiF3e38M6Hvh/GMM8B0CdpXzryPO7RqFn4Er/QcXKWq8UwZBywAAAGxlWElmTU0AKgAAAAgABAEaAAUAAAABAAAAPgEbAAUAAAABAAAARgEoAAMAAAABAAIAAIdpAAQAAAABAAAATgAAAAAAAACQAAAAAQAAAJAAAAABAAKgAgAEAAAAAQAAAU6gAwAEAAAAAQAAAWwAAAAATWD0YQAAAAlwSFlzAAAWJQAAFiUBSVIk8AAAQABJREFUeAHsfQd8XNWd7v9OH4006l2y5F7kbjAYDNj0lgIBsiHJJoSUTdtsdjdvy++9F/a97Oal725CdklPliQbSIUAIQkYCL0aA8a9ybZk9TaaPvd937lzpdF4JKuMjG3OsUczc+fec87933O+8+9HRBdNAU0BTQFNAU0BTQFNAU0BTQFNAU0BTQFNAU0BTQFNAU0BTQFNAU0BTQFNAU0BTQFNAU0BTQFNAU0BTQFNAU0BTQFNAU0BTQFNAU0BTQFNAU0BTQFNAU0BTQFNAU0BTQFNAU0BTQFNAU0BTQFNAU0BTQFNAU0BTQFNAU0BTQFNAU0BTQFNAU0BTQFNAU0BTQFNAU0BTQFNAU0BTQFNAU0BTQFNAU0BTQFNAU0BTQFNAU0BTQFNAU0BTQFNAU0BTQFNAU0BTQFNAU0BTQFNAU0BTQFNAU0BTQFNAU0BTQFNAU0BTQFNAU0BTQFNAU0BTQFNAU0BTQFNAU0BTQFNAU0BTQFNAU0BTQFNAU0BTQFNAU0BTQFNAU0BTQFNAU0BTQFNAU0BTQFNAU0BTQFNAU0BTQFNAU0BTQFNAU0BTQFNAU0BTQFNAU0BTQFNAU0BTQFNAU0BTQFNAU0BTQFNAU0BTQFNAU0BTQFNAU0BTQFNAU0BTQFNAU0BTQFNAU0BTQFNAU0BTYE3EwWMN9PNvpnvtaWlxcP7H/YU1/odjhojYgw6na7kkGM4tW+rf7/IIMbCC/E3M430vWsKTJYCGjgnS6nT9LyVKy8PRMzBy0QcDYYY708Z0iVirhbT2GGIWW065AWH6WhIinmX1+F97rWuna/K4cMR3K55mt6y7ramwKxTQAPnrJP4DWrgxhudi15ve6vpSH0egFmBXpTjlRBDXGaKfSIu4heOAMNIpkwZdIjZLab5rOE07tu59YmfpE/Cmy6aApoCmRTQwJlJjTPk85IVG1Ykxbgdt7MRr0k/Y8NCUUBq6imJJz+bEOeu/a8/efAMIYu+DU2BvFHAmbeadEVvOAUWrdtUUVZR9/9MMX6AzjThNWnQzOy84TDqDIfzBsMh7QWehpcHBg4nMn/XnzUF3uwU0MB5BoyAdevWuYsqm99jJlMP4XbOn/EtmeJwOMQDBrTa5TPm9wS9j0hPT3LG9eoKNAXOEApo4DzNH+SiVRvWRxOuX4O5/BhuxZ2v2zGhAjXEUeMQKSxPFfyhu3tBn8gBpR3NVxu6Hk2B05UC0xLlTtebPZP6vXTpBbUJV/KfcU+3zNZ9KZWnGGHU/6IjFn/bjh3P9uCztrbPFsF1vacNBTTHedo8Kqujzc2bfBVz6j5sOsw/4sjafHdfcZoZyykMRm5Apcd0ORPNDVXb2traovluU9enKXC6UQCSmC6nCQWMBSs2XOQuim01TKHFPK/PzgRixmMxVGtKIgF1Jr7z3aTvkiFV+OHDoZC7NN/toj5dNAVOOwpojvM0eGRzl57XVFnb+G14XX4R3aVPZl4LAZOuSKvPOUvqmxrk7TffKMmkBZ5DoWExUyn8bEjKcCyqrWz4Q2fnYYrvumgKvGkpkCGUvWlpcMreuIr6SYX+0jTMf5mNTqZSKUkANMurKuX8izfJhs0b5eyLNspgX784XU5p3XdAfv/rB+Sen94lbq+XXTjklNS1O16J7dDhmbPxRHSdpwsFNMd5aj4px6IV518Zl9jvICZfn+8u2mK51+eVTVdeLmvAab7nYx+QxgXzpW8gJAkT66nDKXOa6iGuJ2T/rj3S39sn8O30wkf0rKoy85ddXUc015nvB6PrO20ooIHzFHtUS1ZtXFRSVf8jdOs2vIrz2T2aw8lhUuw+96IL5KzzzpF3fvA9ctGVl0o4lpLBoYi0d/ZIb9+ghCNRSUBcn7+wWfzgNp945E/AUqeLQZoOt/FcU0MV7ERtOilIPh+Qruu0oYAGzlPkUc1bt664vLL5s7DJ/AzgtDDf3UqCc6Quc1HLUtmw6UK55Nor5Lo/f6c4PD7pHRiW3v5B6ejqSes2RaLxuBQVFUppcZFEe3okEQrL3n37xel0FKTEWJeIGPd0dR0eQD+1e1K+H5au75SngAbON/oRIRnHAlfJOxxJ1x8BmJfnuzu2WF5WUa7E8nUb1iuxvK65Sbr6hmQoFJHOrn4a0WEEggEIOIhYdfG6XRIsLMK7R5bPqRMzEZM/Pf6sJFMpB/rpMR3aUJTvZ6XrO30ooIHzDXxWi5efs7K0J/RzuBf9Dbrhz2dXssXyVWetlQ98+i9kFfSZfYNhGQQH2QHAjMXi0jynWgoL/RDPI4rjDBYWSiDgl4qyEnEDJms8ThX07vP55LnnXwLX6fThQEAM87ddHdW9Im06oiifD0/XdcpTwHXK9/AM7CCTcaRi0c9C5P2EQVYvz4ViOY06S5a3yOLly+RcWMtpMR8ajkpnz6B09fRLEj6a9TWV4vV6pLsXAArRHIAopcEiqagoFR+OF0AXaqN5y9LFsv/AIZk3r0kOHDyMc11VSXHcsWSJ8y07dkh3nm9BV6cpcEpTQHOcJ/HxWMk45r3XTCYfgrg782QcWX2ne1E8GhVbLF8LsfzdtJbPa5ZuiOWDQ2Ellrs9LpkL8TsciUkXQNPy2RQpLQlKZWWZFEJMDwA0i+FiX4oRYvusNdTXiRu/PfzIE9pQlEV7/fXNRQHNcZ6k571w5cZzBmKp/4Amcc2YJtMMJzWLtHZPp7AKAqa/wA895mVSU18rN9xyswRLimEQYkSQKUeP9QAADYjlNaqd9g4YfNJO7uQuCZgeiOXkMr3oRnkGYNp9KkD9cxrq5bJLLpSHtvwJIOquSZrGVwYHZTPOoXtS/tlnu3H9rilwClFAc5yz/DAWrzm/rqyy8d+BKd9AU7W5moObj7hcLhhoiDuAULxNFkQpktPFiGL5+gvOl3d95H2y8cpLZCAUhWHHhx0yDBkcDslwOCLFxQEJh6PSD19NcqcOAGVVVbmUwXJehDxyBM0qLKWF4DTHg3BynTG096cnLEORQ4wUvOWTzY06jj3Xs9XHzkwKaOCcpefKZBxVjfV/YabMP6CJsVxmuk3GgXt9flm4fL1UVNcjgqdBerraBKhG5JywZ+OJ5aXl5XL4aI9E4IeZBAIXwMndCWd2fu/pG1CfWXFxcaFUAzQplhMwgwDLMowGvE1Y4I6kUFUZil7YSpG9AAmPF8A96WddXdUhbSiakHz6xzOEAho48/8gjfkt5292+pL3oer34jUuApLjK6+sldrGeeIPFIsDAJZKJWVwsFeJ1bm6ZrsXZUb9/PknPyirN5yNa10Qv024DCUkBA6TFvMgfDGdLmQldrulrLSYfphSVVkuRX6vFKK9AvSOXCbF88mWqsoK6erulmef3yqRaAwe8dityGFcpCOKJktBfd7pTgENnHl8gioZR03jd8CBfQE4xM3RsspYdKI4Xte0UFweL0R1t6TAgXYfOyLh0GDWdZbyMDvq5yZG/Vx1Kbg+LwATCA0g7u0fkNAwNqlUYr+hxOrCQIG4oA6g1bzA7wN3aekyTySWH9eJjAMV5WVCneefHn+aXKcP+lMVUeRxVrUNDuqIogxS6Y9nIAU0cObhoTIZR3F1zWfAeN0LVnFZrioBK+D8XOIrKFKcJc0oKTMh/T1dUlRcKqlkSkKDfdJ2aA84R2xGCVC1i0rGAeNPOTi9S665Ui5OR/0EimD8SdCsRMneUGngkqwHPpoOcJbkThMQ+wsBcNwLo1ABpkglnnoxXicSy+32c70HCgqk/VgH2k+MiSjyOhI/6e5u03HsuYimj50xFNDAObNH6Vi4/LyrExJ7ENW8PVdVBDSHE+49RaUQx4vEDe7S6y+QRBw6SICcCdG8r7tDOo8ekJ6OY/iO8G+ALEsusZzuRXOXLILfJeJ7iJgZZWh4GGL+kLqO7XohnpdCPHcTKAHaJaiW1nLnKCZnXD31j3MRfXScocjt0gmPp05KfcVpRgENnNN8YItXnr8Y1vI7wWH+b1QRzK6GwEUu0+tHFE6wVBwALuoClcqTYAruLx4dVpch36UCO4IoLlIc5ERiOb2IsgtBNgy9ZgR6TScAs4SWckT/VEKXGUSKOIrlkKfzWpShCDWOMRQZtqFIx7Hnldi6slOKAtqPc4qPg8k4XDHf36dM8+/HM/sQMF0Ar4LCEqZiU7rH0WYAkjDgEBiVGnL0BwWadtQPI37oYsSoH75o9InCHzNnweEeJOngtaUlVnx5icctXrCWtJR7cl6Un4MtyxbLrj170W6xDAyGHFARlCRdzq+0tGz40GuvPcU9inTRFDjjKKA5zsk+UibjcJTe6Ew5/wicuizXZZliua+gkEaTMbpKcpYpsIuhgd40cI4CoS2W21E/TMZBsXzOgnlKLD8OZDM6QKMQdZl+xJIX+zxS6nVDhwmLPcXyjPNm62OmoUjHsc8WlXW9pxIFNMc5iaexqGXjqtTOo7cbhnn+KNRlXkix3IDhpxCieUBxjvxuF/hygrtMSnioH7rNuLKe2+wm6yP3SYv3eZsvkvo5DQowi+yoH+gyT1Tor1kEA1AQYOnDyeQyR1s/0dUz/70SmZcaEK2UHce+aJG8ddcuFcd+4puYeTd0DZoCJ40CJ4MhOWk3k++GmIyjtKL+i8gC9D0A0Zzj67f0mG6PRwqLy+FWhKRB0GOOgiYAE6AZjSByB6DJxBpq87N0RXaOzMUty5Aj84IRa7nTDfeixPGtZR+xUxIVgeNkbHkFnmYR1KgnEzTtPmXHsaMbbtGGIps8+v0Mo4AGzhwPtKWlxVNSs/DPYfZGMg45L8cpAEfLvYiASS5zYrE8Ci4TFp20vD1e1M9kxHL2hewbX36AJV2MmIwjn9ZytjHVgrh16cX2GsPDYdmzdz/pwYCkdESRNhRNlZ76/FObAho4s57PgpXnn5tyeH+Nwx/BK4cqw+IyA8Ey5V7kgMWaIGoXJZbDOh4e6pPI8BCieEa5TIIdk3Hkjvpx4ly7lvHfeQo7RSf2AJqdatTP+DXP/BdynUyCPBJRBOTUCY9nTlddw6lHAQ2c6WfCZBylFXO+gan+dRyqOf5RjRXLnYj0GXEvwsk07pCjHBHLkwmI6aNImJmM44LLLpbsqJ/j2xt7hDVRBFeACUCaSdTP2Jrz943uSdpQlD966ppOXQrk4KhO3c7ORs+akYzDXRj7cCph/hvwKGchR0lRnE7sSiRX/pijpxIgE4m4Mv7QF5Ohk0qWxikq6gfGH27By+xFcxfOl7fc/A613e647kWjVY8Ry+mHST2mZ5x+Zlz2hn0cz1CkEx6/YY9ENzwLFHgzc5zG4pXnXexwIxmHIe/ORdtM9yJG/UwklkfDTNUGLjOtx7Tdi/ItlmObyZkV6gMA7oluJBJBZqTUUEgc0E8qpB9v5Zhii9mGIsWr650xp0hFffqpTIE3Jce5ZPW5zcmU8RUYvK+fyATtwkZlBdBlMmsRFJmjzxHgSGAkWFI0p6Wcuk0W/s12LyKH2dA8R+JwLYqN58Surrb+UCyn1rQYekxCWgWe0kxXuCS2/U0wpDMal+gzz4sJtygzGhEHNmRjrx0FAXEtaBZXY4O44VoEPQQ6kXHPOGuyZSTh8cVIeIxthbMSHiMDCRShumgKnMYUeFMBZ0vLpsKYM/Yp+KB/7rhnRsTLwgkCJ0Jh0qfyBMu96ERi+aKsqB+GSE5GLCeasAt0LyJg0lI+bbEcwJ7C1hjm0KAM/vcvAIIuiTz6mNXAwKCk4kkV0YRtPCz3KWSBNxAW6l62FI5ELil8+7XiWdGiuFJ0ZcplI/Zs7+zqlseffJaZ5l1YfCpMj+8OHVE0ZVLqC05BCtiocAp2La9dQjKODdckHSkm43jbcTUDZKi7NIFaFnZa3COPeX0FOJ2AORr1E4sMTyiWM1xyomQcx7WPAwRNrmLkMmfqXpQcQv96+mTgju9J6J77JL71VYm99DJZYUECTdwOtulQCYkhRPOdnCX1sjBoJQ8flcShVkkcbRcTse8GEiE7ioNpQ1iunuc+liPhcSGIq3fGzE0uffQ0o4CFE6dZp6fS3UUrNiwBTGDritxhkgRFplyrrp8vwdJKuBANSOv+ncCQuMpk5IMIC3SRWHhowqgfGn4Y9ZMplqel9wm7S8CkWG5zmTMRy81oDFxmVIYf+L2EH/iDmNgMKDUwgP6jBQLkpAsWDv7HSuKBc37RB94t3sULwP5OPer9V/fcL9/4z+/bO2MyUehLzngcO2M+q3fGnPTz0CeeahQ4YznO5tWbSqoq624DaP4URJ8/HuFpACqtqJXGucskiLyY5DDJXapIH3Bg8XhMyGEqjjPDWm5H/SxqWYqonwtHon4KioLIUalwZ7wm1XECJosd9TOjHJngIJODIUkiP2bfl/5VYs+9JKmODjFj4C7hZ4qVwWps0n/JeoMbJZfd3SXxV7Yrsd+zfKkl1k+6HpEm6kz1zphToJg+9XSgwBkHnJs2bXJ5CutvdJjJP+IBXHqih0CH7ZrGheILFGJ7Ceg0IZ53dx2VIWxfoQpAiWWMtTxjC96pJONQ9bAuvOhaRNDMl1g++J/fkdAvfi3J1lZwmkMATIClAswZCBUU4dHbJCzw5iA4V3TcWVcnDuhDJ1tGIorC4TEJj2PDOuHxZGmozzv1KHBGAefClvNWD0WSd0PC/DRIzXwXkyqDfd1SVl6jonxisTCysO9DhE94DHdFsBvJkQkOc9VZa+WWT/9Feq+f6UT9WE7sU9nrJ/NmlFgeGpbh+x+Uwf/8riQOHpQUjDHUXyJjCE6dAWBmNoR6DIBwqm9QYjv3iHfVcnGVlU1J9Nc7Y44hqP5yBlDgjADOBWsuqKyoaPgSlIXfxTNpnMpzMYiIKD3gMgd6OuXowT0QzyHiZhQ76icfyTgYwD2jZBywglMsj72+S/oplm99RYnl8HOyxHLqM/Ne0iAMF6b47r3irK0VF12WJllyGIoydsbUceyTJKM+7RSiAA25p21hMo6oUfJeI5G8HVymd1o3AiCjGM50b4NR5N1VFmaq+LjjJCKC8hj1w8xFfE230FpOMZx6zGRHp5ideNGhnWL5jHYQmkSPlNSekjgSeMQPHhLPgrniKCuZxIXWKS1LkfAYoDsm4bHb+ZMlS9ZrQ9GkqahPPFUocNpynAtWnLchZfjvQY7MD4GYeVkACJb8xxIHYOY76me6Yjkt5SlswBa+//cyAF1mko7s0DsqkFfW8nyJ5erWJ/wDEkl8x25x1NeLZ37zhOdm/5gZxw5dst4ZM5tA+vtpQ4HTDjiZjKO8qvF2UJguRtX5prQSy8F9ctuKNzwZR1osj+/IJZaDyySKTbsw+on7G3EnTDKtk6wLbdK/04VMSPTvdJaXTroHemfMSZNKn3iKU+C0Ac5mJOOomFP7CRjBfw+arso3XXPlyPyzD79PikvLR7bgnahNqkr5snNk5sW9qO2YEsvDDz0iqSNHxAyFLLF8ptZy9DQF0BxCtuReLBLktD3IHm9z2xPdJ38zcG581x5xL5gv7oa6KUUX6Z0xT0Rd/fvpQIHTATiNRSs3XOLwpO7HxL4530Q9UTKOyTqxU1eQmSNzusk4KJYnu3pgKc9wL+qHKxA5whmL5RZgYit26YYBLIpkH3F1gyaA04VtgyfJdQJizTiijOD65KioEPfcOZN+LHpnzEmTSp94ClMgL7rB2bq/RSs2zoML9ldgu8m5Z/lM2iV3eEol46BYDuMPrdaD3/2hpNo7JEXfSXKXdGKfUbEAkxjZl4hKDB+4TxG2BJECgLELkVFTjYk30KdE61HldJ/q6YWhaPIi+2zsjGk+f4d7+742Y9l2UZuOGLfdZscYzIhy+mJNgVwUmCyLkevaWTtGsdxTlLgV+rcvQABGzGN+i20tz5WMg9vwnqhwRpJw3LYiH8k46F5EH8z+b9yRw1o+s0dEHSYxcgj7HQ0hEgrbGkPbAQ4TgOwGh+mHz2cBuM1pFdRlICS16KMfksDlm6ZUBROA/OLX98kXvvwNhLYqh/pDTkldu+OV2A6RF+KTqazjrtsLnYVJh+H0vcVImeWm4agyUuJLpWKvD7u8v2q44tZeqCFO/EAn05g+R1MggwLTnDEZNeT5I/ctd4aS1wEw/0++QdMWy/3YEXLTFZdJDXwRmYzD7fVOKnsRb5WgSaIx6idf7kXkMOO7diO8sVulfVMieZ64THKXfUjuQQ6TL6bIKyCHCeAsQijkZPWavPfjCupKIdNSYv9Bie3eJ56F8447ZbwD4yU8nuzOmObTdwZ7O8Mbk2biy46EWeD2uOriyaTb5cG3lGdPicN9Wd9jP31g8LnfvlB09rWvjtcPfVxTYDoUmBk7M50WT3DNwlXnXm+I8wcIC0eiyPwwC6zFFstPyWQcTPNmi+XK8HMCIk34sy2WW4AZoy8qCED1JQ1XTjjIF3vc8PocffT8RM40Bm7bCcOPpRgY/X3C5viMkLIu+Im/sLhOpKabbOHGbnf/6l757P/9suI6oZRoR7f+vcgd+eYLL7zQP1495l1f9fcFC7+YTJpvx+3UoqfOJPUQ5IDBQTs9BeIvLTMNpwsZUFM/SkST/+vggVBPy003IUpAF02BmVNgpsqzmfcgXcOCBVd5yxuqPg6e6IMwPZB1mezMnbAPp2oyjt7/8/mRqJ+RZBxAgZkU4IZaaiiS01pOww+2ilPcpR95RYMAzACAzeYyLQIjITMAU3GmybiytDO/nm/S2ZQsQ5HBxpEUmVb2yZaROPYp7IzZdv+/V0a9/o+6DMf1sO7PSyZSDqofWHg/3pIq8SDRCpONOpFMFf8X4+/lFWXu19/2oQuPfOtbv9W6T0Ut/WcmFJg8ezCTViZxbaSjL+BvdtwCUXK1nU19EpeNe4oSy5GMY6Z7/TAZBzm1WRPL8xL1Y3GZ5C4nK5YTZOJg6wmuwzBM8aX4TmCQG5YiC4rGJe+YHxjLHnnqGfGsW2Pl8PRPOk2AMOFxX3+/vPDSNhkYDCHDn1GSdDm/Ml7C44DhXJwS58fAMjcmYshiP9ITcMrIbOWAvtRgFBXANAG9rsNwBICh6wy3529aHM3zcTrDcnXRFJgRBU4JjhOTpMxR5vgH3MlGDPgZGYM4kTKTcazfeJ78+Sc/+IYn47CjfvKbjMMCTNu9aJhp8EgAoGIBRH4vuMxSZDLyQXzN5DIplkfAZUYAln3IO2q7JLlxTSkyRDkBPM7JOsSr4YcG8T959KgYJaVTiiiays6Yvb/6fknKI+9Hvrsr4vGUYxQ00Ql88ZZWiMtD0B79RRnH8N3jcS+KJxKOf7z5ukf+uWnZ8D898sjoSeoe9B9NgclT4JTgOOMuMHWm+VaIV1XkFKdbGPVD0ZxRP8zCfu7mjbIBr2g8hcTnNIxMXLNtLbeTCnML3mmvLNnuRb39yvijJrUy/JygMxN3VVnKSake+GNmuhf5AX7UY9Lw484Q/dmaDZg0EvUCMC0R1zIYFbsAmDjfn3aEn+pT4FbJdE9KtLZK/MAhcWOPpcmW8QxFmTtjoj/GgCd5bkqMiyCRuHgvmYXuUYoomQftzzg1Dr9Tt+HclAgUfV8uXvZeuU067Z/1u6bAVClwSgCnw3ReCLVafYoK/mkU270oWyx3ebwyOJyQMJzKewBcFaVBCQYLkbxjbDv8xhdFcitP5syTcaSQhCO3e9HM9JjsKaN+ssVyuhZ5wGHStYguRpmFoEmukqJ5pliOS6TI6VbX+QCYNBjZtLCBVrGSmZVN8NlwO2T4N78VJ/YqciMb/lQSKF980Ubphj8oDUXpOPZG8brWoTwOQ9Ewm40biSqf03M2OeXjCo7xfsYDzyTEdrfTVShusyVaWLShd8uvHivdfF3fcfXoA5oCk6DAGw6cdevWFaRiRg2csSFjjQW0E/U/l3vRDR+4WYpKipGkA0CBV1t7pwwiQUYSho+A3y/+gqS4wJ3YelTbvYg+mUzCwQ3SOP+mUxj1wzyZ3LaC21fQUm4OIKkwDS2Ky5xOrfY1FmDSzbQnHlGuRba1nGI5ucUSGH9skZxX8T7os0mxPIYooQGI8hZDbwrFcoImo4X8aUOQTX1eFwYQEZx5XgGA2P6N9Y5f4J4Ezi6MXTSTzU1SXIm8nZMsJ9wZ87W7XJ5DfRWpVNKwn92YqnEfCe7a6fLRLjTmJ/tLAts3Ow1nbdLl+qq/0HeNad42YBjaUd6mj36fPAVOOnCuWXNVZXl5YeyPf7xbuZsU9Ltcpj/1PgNc1FSKLZaff/GmMXv9RGOY8ABMch8peENTpEuB0yKT2QWOprg4ABxDYl40Rt4vL1vwTiiWs5Wp3RsuyCgWYLL/2VE/JxLLwwDMJO69D+qLyYjl7CWcIGUAO2DyfRhgWwwOlhZ2mxvN6FiOjxD7Ac7hx58SecfbFM3HwbAc10LBPcHOmBLuHYw5pNKVEug22dOxUM5FNDE8JG4f9oSDe1QumnPRwHig+rbSdDg+Its2fB0n7s/ZGX1QU2ACCoyV6SY4MR8/nXXOVTeAM7oqHA3fUFPdvLe9/X3dvoodhV6X621AurnZkyFXm9nJOJaubBEm4yjCfkGRaEL6EYUDI4D4YBThdPf5PNI/EJKiogKpQiYfD48DOC1LOWYQKFCM17QEaMxEtdfPrCbjsKJ+qJOMsz28KJb7KJbDtSjotrhG0opwwhfF8gjydPYDxEIAdS4eXEiCLrcU4lUAKzgd4G1w4TWkPQFzGLQLmYhhB3CyHZYCXDO5An4XXGoqEFDPwrF6Bfpp1TGZ63MkPB7ZGXP9wsZYVbDwAgD42YlUKveCT/qAG3f5sJlmlrpipH0EEhkpw2s6ZEUylnj4L29+e/uXfni39u8cIZD+MBkK5B6Ak7lyiuesvPzygNnvuBxi1IcM0xWBCwtSiN/2loLAGsNISiBb2Z9d/URieSwK408sIfsPwjgBwAgEvFIUgGsKJq0b4DKvuU5S4L58cJNxYx5zw998iOUp6E1nM+rHEsuR9AOAkMBLRf0AMHNF/RCeyF9bPpljxXKK2n5wjjQWedJARn7NhjTqPW3RPAbApPhOtqwEBiPqTS3Np3129pMZ+x38nLiRL3QQh0uQ0zQF0Xkqi5Kd8HgeEoccOHgYDvmuKjgV3fHJz//oLX/8+t8CmWnxYl/GcpzshZIusMAkCJ6OAnCeOBV0yyzqKy5nmL7hdt0e8Ltvwu8vZJ6jP2sKnIgCJw04h/c5E8Ul5iDM1IxDjmNePrhx4zWl7e1d0Zgnvs/ldK8jODLFmV2SEBXJHSagN6N4fd7mi5RY/tab3yH1sNqCObLEcvzW092vOM0kQCASMaQT+4qTw+T1bgcsxvBNLETV5J1msgUvlKVvSDIOiuVw+h436mcisZzX0fjDfzaMkMqZYnkEXCZ/dIH+BGaCJgHUehyjz8R+NuO/Q8+JEFb/jh1yuLNfihqxL3sarMe/ZuwvV1y6GT6dQ2MMRQNStq5nYDhSEvABk81xlacExmhvtzgq0X8891zFxOKARchhOowGeMlvCD/xiy7/+e84mOtcfUxTIBcFThpw7tnzQHTt2qvuM52yFcr9D2M2nRcOO763Z88zsubcy3x+v890udxGT0+PhIZDYBRMKSoMwqbiltq6Bpm7eK6cDcvrRVdeJEPhmAzBWs7pTEMPP5SVFUsY0TL9CF/0+bxSCEMQba/kdmz3Ihp+gJ/TK+jP+Mk4ULHqzfSq5lXkljjpmSPz+GQcdBMam4yDt8FraPghR0rDTxxiMo8S7CaylpMz7QOHTv3nMF6kNQGTXGYZ/TgBtI4xuTHYN4Au6uWd2uCLjzkK2sdzSEBcT6FPvcNRqQzA7jcFuo8Yii65UB7a8ic8Y3dN0pX60qH2vq8VL6iBlgV9IbFyFvYVqoZBGMwxfpz068xxLq/HrXsMt/fzCYd7u7llyxFj82aVWSlntfqgpkAGBTgPTlppa9uzv7Ym+LppBMti4bDfH/Cd9bsHHvUsmDe/6n3vec/6ZUuWQhcZFGbOWbt6vSxesFSuu/YmaWpoltXLz5b5yxbJMMS/oUhMDh05JkOwlrvhAuMFh+MCsMSwB3oZLOpFhX4pgKjuwQRjjsxZ2YI3zzky6YvZjf5HwGUTCAkODJOkLpPWcorMdiEGUQcZxTXUYQ4AbG3jD8XyILhFWsp94BxtxOI1fPWDew/BNScMcImiDnKVbtCIju+8joFMFtfPsy3DFHWr9BclVIFxVSoDfByn8DoU1Ne/aKkUwAWsyO+dCm6qyzN3xoRxzxFPmpHhSKxs/cL6rkKvu1nFpqszc/9Job8G70dlXkr3KftU3Dsiizwul+EedoXbP/+tnx7KPkV/1xTIRYFxRlSuU/N3rBlp466/4bJvA+QWve+97y12ul2L4WaiGIO2ti55DXvaSBJRLyXl0FlCsseMTYKbSgAkeuHeU7aqQZx+D6e1NNfWSGHArwAAllLOaiUaMvxopmK52oIXLkZ0LaKLkXmKJOOwuMyx1vJM96ITieVhqkBAH+pMC6EDLoT+UwnyGaOBTBo5U3K/oTQwQ7SVardvRE867ojAxcMrV0vnO2+UyqZGaSwJYM/6UeAf97qsH17bvlPuue/38q3v3QkAdKWQ1GPvL//Hdak5FcEF6J7TjlHPusz6ij44cG8uf1C8MBzm4jrV7YIQ4GgZbfapUMz8Qfm5VyMJqi6aAhNT4KSJ6nY3Dh8eKDcM53m7du1KLFq0cD31TUlMzv7+kPT1DcngYEQCvhIYBRzQWcZUvDH1lvy9t3dQamrLxDcQlfll5Wq/b08oId5EGPMC4psHswDSqgtcKC3HZUXUcWWggd2JE71j0tliOXeUpBGIKd8Ugit/zGnUmdEmQQn/AUpMqpFU3CJB6kTuReOJ5ZY+cmzUD+tnL8cVywGa5W7oHxXXxbOtQvGfDvZxgKsV945FiyCE8xAnznXphIWaVHd3l5jI1TkMv1aXC4muplEyEx73Dw4BBx3VX7nn2fjnbr5oqMjvKc4FhiPNoL8pAH4yiuTQQ04AKI1FY8Fb3TXGC3cK9Xi9nwJfy0N0UdJFU2BCCowdSROeOvMf29vbA6bp3gRR8DsVFRXnk8uMYmK1tfUAFIfk2LE+GHbiimMkWEajcQlDn9ne3iMFBR4599ylUlVZLIvm1osPXAJFUeUyAz0fs/M4YlD6c7tc+HLSiBNDqCW4FKXzo5EIc0kVRg4ND1u5cpkIQulJ07fHLOwpGJbsrStS7e1qS14lw2aIvtOjhgVKdCy3xHL0D/22xXLGljPlG3WMdmGXjxfLqctEpBM4RboYeXOI5YRmuhdNJJbjMtW2BbHUlcKJHP2hWE5LO0V0Eq0A/VJx7+gbdaEnKtiuWcJLl0po5SqlRgn63Yjamd5Qs3fGfPzxp9lXbziWSC1vqnJWBaHIAKHYxfELIBxjjC5KDhq74Lpl3evYK8i5ut0uWBKde//+g3/m/pc7frxz7Bn6m6bAWAqcVI4zHi+42eVy/TOc1ysJmh0d/QDGqHR3DwAkEwowOS8JmIwt7uzsRXIGl1x88RoAJww+hT5wok4FhgQGQA7uhpObN4U/yqCBd0yEGJiHGIwUQFEYiyD2lwYAkIYC6F27jqk2YsiuM39+jTQ2lomb/ofIpjQ26gcGXILlSYj6yZUjk9ziiaJ+conldC0i8NG1iCBNGCbgUSSnaE4aK5Kl/xJ8GIVEB3samAjm/Ik6VoJ4EGI2XZlwVL3wNmExod8keIrXjQTRcbxNf5hlxrHv239Ieociga/e82zkOx+7KuFy0tOdd8Ke5SjWTSrwjPZ3SzIWEU9hCfCR/Rl7TQzcKUIyP5Iwk3PMlx98yFh1BXbG00VTIDcFpscG5K5rwqOwYjqHhpL14Pxu7e0dAGj2KdG7s3MAseNQWFE0B4dEMCNghkIRWb9+qaxYMU9KSpCYFgYGJY5jvBPLOLftEoGxiAl4R5ih9ISxf8ecAIcZk4MHO+SRR14BUA8qjjMGzrSra1B64TZT0Q/fwy99TaJbtwnjzNERCzAzuD+7vqm8s5/sag8MP4PoCDk6EwBPsZxc3IlyZPbALzFCAqEWisslACVymlRFUK+ZCYFcSmgtpw6Txh9yUgRMLxYbiuV8p6hNfSaLLZYzHLOXoInzCZoESRqlmLuzGKBHA1IGudW14/9BqGt5ufTc8A5JFBVD7eKWkgIf1h72dXqFhqJgUaE8/sSzdDmDI5EzRQZ2SX15yoMNk9DlExTcLxYRE7Tk3VM9xOKAxwY/qwQlkTDOSTjjoUHvUNexpk9+4uItX/vug9rKriil/2RTIAtisn/O7/dt29puiUSitw8ODvu7uvoV+BEwGQ0Uw4Qnp9nV1ScLF9bL4sXI8QCOhS/lOkIAwosTZmAgokR6AiZFfSSrTYOmqbhS+kiXlRWpc1Mp3iJAB4gxDNeYzs4+eeWV/SrRR01NGXSo8ISOhmTRCw9LcNfrYgAwTWXImClpRsXyzByZVjIOxn+PTcZhtzaVZBx8OtbdWWI5uUX6YxL8CHYEzbHuRXYrllhOd6ReADrPJ6ArlUF6Ww1ymQTYE2JS1hAxoK8OL1sux279kCQAmCWI3FpaVwFXp6wTp/g101DkhARQU1oYBtdpVBb7vWaKGwtNpafwJIC7lCB8iPk7E6FBjA8H9KFhiPMuZtjanXS4bhhuP7Jr7i23RabYVX36m4AC05ehpkCcO++8PxgIVN1y6FDnSgCkIxaLKiDDvM4plhfCnYjRP/ydzBYBk1OD+s6OY70AzhAy6UC8j4WhF22HfsotkXBE6usbpThYgkQeXnVuaWmB0rF5YDRiPfTvbG6uBrfbK0eP9khPT7+UlgUl4gzI3oXrZOXeXRDnjxfjpnCrONUCTCvqZ2rJOHJF/WRay8dLxqHEci4+AEJypZli+agxx4JYGn7Yt3yJ5WNpg4qxiEUWLpQkPB2odw5CUkgBzCH0jz11it8yDUV9AwMyGI66v3rvc/H/deP5sYDX5aVqe/IFXHEIyVe47IRwIWhmqSewVEDFAQ60yeMwf5SsrfgATnpx8vXqM98sFJjZaJ4Ele6660m/x1NyCTjLf4KovRlZijCvYbWdQCz3QbyjWE6wI2DSgHPgQCfArlsef/xJ2YfNwX7/+wdkx87XkTn8Gdmx43XZtft1AOIxeW37NnCtnXCiZ/gxJi3EUAIxC9tlqa6GewoAbu/eowDaIljnwV2hMeyUKIU9xwR7Mag5pU6e9J9RwOyFN8BUxHJLjwnu7wRiOXqlCu9CJe+AHph+n2PEcnBOmWK5fSPUl/K26FpEDpgcJsGCUUKZYjmBd1qFnUMDobPXy9B5GyQJMZ3ACdchKYBRKR9lxFD0xDOMx3fAUJS4sKUR4Iy7wMO16TOltuz7Tb+jy4RTJzKJlEJJ0fo/3ntl7xfvvF/n7pwSUc/8k2ed40ylPEudTvObsG7XJ5N0L4KeL4EMPOAa+/uHlEg+Viwnl6lmoaI+dZC0qj/z3PPgNo/J7r27ZRAcB6yg0Hdh6wSI2nEYgFj27d+jxPp9+3fDUo89vyE2VldVKX1pQ0MFnOv9CoxpcCoDp9nUVI3zusGpVkoMnGr7opVSs+slcG1sfyoAYoHSSNSPAikrGQcd13NF/bC/FMtpvJlK1A9F0t5JR/3wHmyx3LKWk9skYBIgC2BbIXBOVyznPdjFAICb0BmGFy2SSNNclV6v0I/4+JnK6HYDeM80FO0/0Co9g8Pez/38yei/f/CyWIHbmQ5P4rObWUn7hyL3jPN/J+JYxLd8f6+x+RYtss+MrGfU1bPKcd5xx/MFxcWOsyH+vgfiuYt6TL4IVoWFXrnoolVSW1uh9JLw0QOoUXFPXRvdhSxjzqFDR+Sxx5+QXbt2ys7dOxC3HofukpZhcqQAYTrIEx/wsjlKPqEexCtvf/011McJV61EdupTvV7osGDwpYWeutCDB9sVR2pARHcC1A1wcSXth6H+moxSzuIyaZHuhgtPdtQPATNX1I9tLef5fei/EhMBcHbUDzlApnKzdYzp21OWcnKyUYBtBGL5ZKJ+2DdywAR1yzA16l5UBv0x+zi1RYLUzSx4XvT+gs6w58YbJNKyXFLQG1JFUAZOn69pc7GZzaQ/01DERXPLo0/AR5VsIlrHeDmRoUidCYoSxynNWPfM99yF8AuDFnDfWRaOJ5f8v4XrHtTbbeSm1Zvx6KwC5803f6AMIZFfhWtRcywWM45BPxlCmOQ55yyVpUubkI3dr4Ast1jeKQ8/8hjAb6e88upWbOjVi4GMRL0AO/pmcr4jbBPSIafP6ATgZ77ImXEzr66eTunq7pC62ia05VEgyUlDKzxBmqW1tQOhmkUS8wekftsz4htCqtAJuc6JxXICX669fsj9TSSW+8ABUo9JHaXVM2t6MxlH3zhieQWy3DOJh6XLtOhgi+WM+umD8Qdp2FTcfqZYHgT4WLUrEszoj4mQ19jcudJ77VslgZBXE6oV+sY2VxSLX7Uzo+rHXJy5M+a+fQeRnyDhau0ajF+5Zp4U+GDRMkcHA6nhYowo/kegGuJCtLd9CC65hvQh10FxAIslPisBZ0wr1pcUFKfYIbMWlnd3X71//9998JpjX/rh/ToFXQ5avdkOzaqo7vP5wbil9g0MDG5sa+tQYvmSJU0w0tjWcvqpk8OEDyVG75Ej3UqEp1h+jGL5np2IJBrE4EfonHIdIfSYMnchfDqDSHoRdMvD93UqEM3GOU4SWl9DMAIcOXxYDrUegsHJz027pKoqiHZhcYa47vN1gYNxqpydlRD6Ex7qQwlbFghlDwi2T7wdEcvxhUBFUKIbTy6xnNeMF/WTz2QcbMeK+rF3u8wQy2doLc+mA2lkAIxMcJc9118voTXrJAXjGzl2WqiDsKb7oRKZjcKEx11dPWpnzH5k2YehyAVDUeKzN50fK4ChiC6kBES+DveEpTcUk5cO9Mm2QwPok1MGwglY+gOyuDYo5UVumV8dEGJutoGJo4CqJdSzCgkJv50YcLzd3HLbK8bm27Sb0mw82NOozlnlOC++OBXr6qr/JHSadWedtdDZ0FCFDOwF4EbGiuXUYxI0X31tuzz19DOyZ89uGHsglmPQEjQzOUo3nNhveF+lvP9j1TJnrg9g6JTd20MQd3NDHZI4IFdnRDra22TJkpXgcgO4hmK6BYwE8f2Hu8ULzmzFM7+Tita9qCgXcFqgdDKScRCUThT1AxKm74H3YfWNovh4UT/5EcutkY29K8RBDhj6zIFLLpUIooTiFWXKuEb9YAWSRs+vKsmrftOeU7ZrGo16EbiivfbaLiQtdjsR2plcO6/OAQ7XMRBJwN5nyI6jgwowf/inQ7L32LACzK4h+MVCXXSgKyLPH+yR3e3MxCVSX+rHWLM4dz59u6jPBtZ/h8PvcJkVUbMo8oX/uldHFtkEepO+zw5LMELMD8u8ea7/AN9zTnNzjQJM6hctERlJO8AaHDrUBS5zUB5/8qkRLpN+nW6EEmYXQsTaDUWycKlPvAUOWbjI2njt3p8dUxbcnEwiLmJ9YbhAvf76K3CmL1TbZ1DHyr1rAsiitKKvVQLw4Qx2HsHkBxcFTiWzcGJRnKOTOI051BsSd+29fnJF/ZD7s3Nk0lrOOghwlnuRlesyV9RPZo5MOxmHci+CDnZsMg6rj6pvqJlx7yPJOPDTdKN+Mu87+7NSIAB0KJqH1q+VaE299F+8CfTC4oZ7JJePGHJwmwjNpDIxz2XXrgOgY1LuvW+L+MHd7nj9kMypbVbZ3l0Oh/cr9++FTtVnuJGteim4ye1HB+RQVxgcMJ4X+sJnhnWXn1Q0FUxk0t4XlV8+c0Re3Nsj151VK6vnlQsyMaXHqHUDeOQYAEkP3NluQv6EtoEtdzwZ3PyRLutX/ffNSIFZBc7rr2/yhULejzJtF2PPCZoO+HnEEQ559EiXEo+PF8vHn3TEnu7OmNTNZZoyTGPUt/2lQamq88jhA+MbPcFHSG9PN8T1g7JmzVmoBRyacnVCLeAu5y5okMCDd8OoAfelHEYhcnJdAF4acSiWn8xkHFQBMIkHDSyZOTJHxfLjk3H4IZYHoKagsYlFYbb6NP0/BE0wmhJZtQrcZaX0X3KxxGpqYZoBYAI0ubD4kVxlQXWZBPIsotPf9sWXXpVO+N/+6p4/wEE9KUNDQ6AHjX0wpitYNA2kJpCj/YhLx5FDndgYEyBJcf24AlryKMckb6p3ICwd3X1wm0rJ7o4hedtZDYqbtxY762piZwxcNgyd744OJxbvvv/Ody68+j06k9JxxH1zHJg14GRCj1jMexOs2HPi8ZgKi2P0Tl/fsApz3LlzF0Tz16T1SCv8M49ggCMeOgeXmfkYkmD1uo4l5DtfbsO+6W6Zt6hAHnmwWw7sDSuFv5oNmRfYnzFLqEMdgr6zv78H7ZfIXIj5ipNg4oqhQYmXVYoBfWp2URMMk4sWbIqhTHhhufCM5Yh5HpNx0MWIDul82ZClQiQBYty2IjPmm9cQAPuhK8yO+uGEt7euGAVM6wom4yCI98KSz3cCO1UP7Btjy0sAXJPbXC37bnN/V/cGsIrVz5GhczdIaMO5UP4BMKHeQNOKO6P1vBb5AHwA7HwV5isgYB44eETuuut+CSEBCyN7KCnQSDRaRpcG2oJYbFWM9W30L49T0kGOOrVjQBT5CXBIvf6w9Sj0niFZ21wqdWUFKjFJ2jVJVcC0hji3AmPhrFJz+G1dD3xrR8VVH35utHb96c1CgfQwy//ttrYO10OsehaGlzqGRVI8Z0glfTJffPEV2Qn3ope3bYVCHhZY6DE5AVXhIJ6gOwQ7bvXb0Cxy+GAEk4AO8vRLnOAiTm4YoAKBIvnoh/9KhXTW1JTCqMRtb/HjsQ7x/ONnwJ6wkuMr4hEmDY5A51qYBiW7Nf5GLvREUT+5xPJcyTjIWY5NxjHaH3RBASUd2DOTcfjAYWYn47D7N5N3tkxg5sZvTDM3cPY5krj1AxAbwH/iOJ+ZF0BZUVgghRDPK4JI3TaTBjOu5Zg5jGTV//qv34O++4AS/dUeQhnnTOWj3d9oJKIWQCzmo2MuXRFBki5rNSV++atrl8mKOaUAVz7d0aJ4VUgp2MsK2ejMv3VEQt8rve7Ten/2URK9KT7NCseJiJw5cPd5L1yHCuGGhFWaQ89E9M8xuP4ckT8+/BBCJjsxyeB6A9DkRmoOgJbfz9RvhspsFI/AzSgH80LpkyLW3p0RXA8uEHWTu5qw4Ge2wa04jhw9CN/RcmX55cRHB8Sxb5+YldVidHUAFI6viacx1Sct8nZhiwRdWsuVuxBA1eJOCOLIOs80ZuD+/Lgv/rMoYMEypyKTcZBDzbXXz6hYbt0X28nMkUkdK9si90rulyI5X3Ybdh+n+27fW1gBJnbLxL3R9dG88ALFmpF7JwdehoACAmdDObY4mXDlmnpPnnr6Jfn+D34h3V1wQ1NcLKjIPvAmVbF6ObrQkeumZMEu4pmgj6RjnLkHcE0c/r9qm2gcN3FSLo6U5/PejvYMy3O7u5Qr1fzaIgWedqt8FhzOAGLD43R+OukPLDG33PYxbWm3KfTmeJ8V4AwEAnUYrJ+Cq1ERV3oaZ4aGwngNytaXX5aB/j4M6lGEKgg4wEF65NZP1SAqKCH3/bxXtj0/rNxDjpuPnAzgFjjwOYcUaHIOnaDAHw/x7MNIL1cO41AhuNSUMlZhhkmqFNwn/ERzgeZotVYjdlNTScbBfvI6TrpssZyGH4rlY5NxsFXrivHF8vxF/bA1FvveaADjaxjASQMVQycNLBqpIiQkBkAXgpY0AtWVFubdT5PjZevW7fLE48+D09yvnN35jLmtM38jR8h3BXIgLNU/BDtmOcJhNdYoUnN0xeHHynFG7wwbKHmt/VnddNYfi+oiP3/qANLhOWVOFXYo5lhj5enCT3GI+4bb0QCO/NKeaM2lnb/5+rbKt33yqH2Ofj+zKTArwJlIOM/Fql8IUV3NRQ7sQ4e6Zf/+Vnn5lZcw6JiseBQ4q+rc8unPNkhVDZPNQolU5ZHbv9Amu16DwSeD66SRh2K6KpwkmNjMsckpjyYwwCd4WOBECgKFyrCAEFBwj5ZLFFBLnC9ATYV0bfhxggqsnwh+FMujFF1xvjWfwP3hfiyfzLFb8PIqdmtELCcoYZJz4itrOThu5sgcXSB4tsVhoplZSsbBXo0tbHVELIfVbQDgw3tTJMW7uWCZpAoLSXTxQiyfi4TSvId8F+o1f3v/w3L//Y8owEKmIkminUQInglozGqS3KcFZhxH7Hf6QYy+pzsGk6Q61+7nRKA5cg4+xDG2nt7VIT74fV5/DnZUpR3JPiH9zr6iG82w6P8Xwk0/bd51113GTTdpB/ksOp2JX0fRK093t3t3dxBA2QSA81nO7UgsEYrC5WhAZTJKQETNBE0afEKD4GyGMSG56TlKQaFDOtsArhmgyeMp6ClVLkWMYG7W1bImKLd8Yo7Mme8HF0q75zgF51NMW7ZkudTAEkxH+BEGAgABNkWMAUQLHTc1jq8PZyKBRxyARhcjcj6iNjqjaB6AcyUNQJxgfPFumIyjBxFMDJUMIUSU4jkBk9nrq7ADYyEMYhZoWvdOMZ6AOYT6O+F/yvBKGn8IzIwtJ8iW06AFToptzLRYreIZABnozsT8n/1plOBvik7ooANbLYNwSuURQKjmZABoqn0jPZ9/4RWodI6o5zvSBo7b98r+8DxKMXxXlnF8Vh3lj1MoE53OGPvXW/tkx+F+OQhLOxcJ/B9T2Cv8w04wUoEIuQ/3FvX+9fN33DGqzxlztv5yJlEg78Dp8ZjrMcdXQ7+JYcaBDX1e3yBiwg/Ic+TsslqkbrOvJ4nonqj0dMaldV9Y9u1gvk1OhrGkpq6Q1lAFnqinca5f/uw99VIDdyQvsryPVzjBvPD7G0QoJRMiU7xTk4Z9oQ4WCUHIeab5q/GqUccJV9Qr4j/0mG6I2N606491Pbtsg1EvALMPryEAJkVeZrjktZVwe+J1dGIfBU0LMKmbI2AOgpslYLIQMPkiYNq6TPXDDP6wj3yREx6CVb8PoNmLF2nF4wqqoMyjr2oRxeMLNiKJB5J2QHydHKWm3rnQcFgefugJ2b59N4wvbGV2CqlK0rIFL1yo/LinTOu53aoT9/7Uzg75yeP7s4eifYqqhwmxYbiiAvjmxsbE5vZf/kfVyAn6wxlJgbyL6rBUdwI0N6RScFfBDETiYpWwgwMzgizbiovgzMwotIp/43PtMn8xOEfoHI8cRILiCHVROGkUidS1FPM55Tnoi4IuGQ6n5JxNpfLklj6EWGZVnG6DGD6veYGsP3sDDEMl8P1LMwWsm5uwQfdpAWf6ggneCN7MjB4w6BYDCd9CvsxuKlckApLSFeIkGlLGdy8iN0zONFssz+1exC7PtJBKmWK54jBxzKYeQdMDjtYL4PDzvaQEHgXIQYUTmEW+CkEEs1E6Onrk8adeVNykAwvFuAVEIGeO9EXYLjqedkXDkyEaZrOFGZXwnmnYUXkKcPzSZVVy4aJK+d0r7bLtSL/0IRTTGnNcPDDGsKhHsai0w1i05dU22dQCAyJOYDOZhV9jOA+VL/cYrjtNv/kp867bfmHcdJsW2zMJdQZ9nmB0Tu8uUylHDWLPuzHA6qjbZCYbbsDW090D7gpwZ8/OdPX2OI+Cw3xta4i2B0wKDlurWFKYiZhyGHdQD9WmHLjFZS5ZsLRAiXQP3dOdGzRxXgIA7vcVyLq16wGa1SMcJ+tlcf365+I4cgSf7BbV4XH/cJIQCFl4O/zOwiOZUT/Z1nIaf3hX1qVj27Id7JXVF/WQK6XFfLas5SEsTlQh9APcuaDZvSFg8t78WBSUzpbcJX4fQkhlohpMFM/FybOh27Tcj9okjCQwVjJpUnWcgj6UY/O+Gmw7PB/Gm+f2I8dBBKoQJLqmYcgNKzzvi4srVToMv62vrVEAAEAASURBVIxicS6GbrbQ55LqoEf+7OxGuFF5ZAGuX9VQLM/s65Gv/H63kgCCSIdXWeRDIpCY7O0Kyc42xLhvPSLrl9ThmUDiAeftwEJiqgGAEYD+UHUA2kBsd1QCcj/ZHaht2r/l+/86V6ejG+chnt6H8wqcEPMcBw8OdwDkyshpYv6D24xAGo6Iz0+Hc+g3MehyFa7uduGAZyFHV1LmlBvfXyGt8Nl8+LddEP3BwcGws2JtUDZeWCFdHTHp6YKrCc5le3ahyEkgKikpk+Utq6S5uVHl3fQh+YQCTSpQsVUCwlGUM7eSm0cgxK5l4neCJntN7ofuRQSjYbzY9vjW8rF18nr6ZLIOzrwCKMwInPnIkWm3xDYIinQvoiqAhh+CPI/bvxEQ2TYBO5jhQJ+CmJ7CNr9x7E3ObXSZvCPfrkfs5+BgSL7/vbsBfDTQsVcTFNC3H7uUrpvjkb/cPFe2L62Sw73D8iTCJssRSru7Y1BKAH6vHe5DhqYC6eiPygWLKhRdr1pZo7j/MuYKhToA2glEOkG3BPD82Ka5srS+WKX0Cxa45WfPHgYXikUf8e1H+uPyw2ePyTs/eat4e7nQYoHr2C+OyJDidB0Y4yboF4dhDRLNBqjji4PhxCOdv/nua5Vvu/X4yIoJbk//dOpTIDeKTbPf4DJThw8PIct7shNzv5EA5QdgusFtHWvvwH7nVkb2yVcPAIKx++zzi+ScC4Ny6VUlsnvnkKw4uxh1GtLRGZHH/tAl7Uet6A9VL/CHm6HRAFUATnPB3AVy+aVXIOt7mdrpUnG03IcIfn2Oe++BfAyjkNKnnWCyjtNpghGNKpl7/UwklmdXQ/Dlxmsu5OENox5ujkb3Gx7na6aFd2W7F1HPShcjFh4nmLJQJKdozsxOfI22jU/g1AbPRpgqOWAvssXnOZxSdQB/EuDgBkPYAx3cMDnGCQtQPoLzKHIfhhi9oqZAllT55cqlFdIXSYoH1+/rHJLC85sUEetLvDiOpNYAVS5QXNho/+KLsjuM41IETvTyZdXQoSMbEg6nIsNyw6pqqS/3yxfu3ynHsEfW7k7syJrySOkC0AMLT3hOi6KL9/Dr4u06LO7eNtSNYAFUCMothmb4v1Ou2OdR3R0T3o/+8bSjQAaPNvO+Y0Aa2BLjSYzLcsXVocow9gIil7cE4h7FmakUTuDB/pTc9teHAJhhbBHskKuuqpIkxPrhwYR8/V/2y53fOqosvSNAgInA0E1ymje8411y2WVXy4IFtRDTkb0HE05t3sbJ3410dC89L85e+G+qwtZY8M6P9ld1bPw/1JsNQR1gc5lF0LvRWs4dLEcNP+Nfz18ownvQtxKEEfLzJJset1LWwG1AUJUC9WGAAa3lBE3SyaYVxfLCtOGpFIYnGzRHKkYVdEEyID3QAZ7nVyE6aDZKZ2c3mP+uSXOz5BafAofJRYrqRRItAUVxENyjB2NgaXWhNBT7pakMmbCwFJVjb3euGf3QYz61r18efL1DifeKGNYfdVs0kYd7+yXU3Su+ZEQKYTyqDnqVFa91D8bbv34X2wwzeTYWGBe8M9w+iTStkoFVl+B1mcTK6iRFZ3viutNoQoTRWzvvu+Pmji23z45ieDYehq7zhBTIK8f5L/9yT9XKlQ2fmzevLookxQWQCJE4OADusF9i0WH1mW5Jme5IE/WQ1u9Y1JS21rj85xdakcwDO1VCbAoWu2Xbi6wHOixMFsxnzBvo5xirDY5p9ap1smb1WdLSsgBcZhAO78hCjt9GAAnJkZ2PbUGkUCfySYK/UBnBCTaYWQA+k2oDAA+/q594nI1lFQIQTy0FW0w3I7okUf83GluedcEEX1nXzAv6TBRBXyMLF0lisF8G9u2VOBYS1s8X6cQFpBATX4VpZojlI/SxO4ILIgvmSbSpCfRIwQINAMkAGfu0mb7TQZ3bQvvg8cA48skUrFfQQ3rAWYakrtinQJHXcb1g4ULGYjHYVNsQWBPyxJ4e+c4TB6UUovhOJDV++6paaS4DAKqzcXcYcw4sItRhRhEb3wJ/1SB2DWjH+BkGR9xxtEP279wjTYvmiRsJRhg3T5qY7gJki2rGJ+hA/UFxdxxA1BJj6z1XwKd5mSvhOHrwt998uenaj9krdbpF/XY6UiAvwHnXXVCXu154D7jNG3fuPHzWnDk1xQQ0Foa/VSATeHPzPKnfsweuSa9iXh8PQuMRzwbF3u64HG4N4VoMTYiP5DhsUZOsnduJSJbaOrl48+Vorxy5N+eC0/WC8wwo8YkTSSUHh8uL67mnxfn4oxzvaUBEX/H7wJIVsDqViq+hVqSqWh1zPvJHMY60ijEMyzvAUVmE0p3lHZJLQ+gdfiNTYt2zVfF4dzQ7x9XujFiponOaJIZX6OyzJbJ3jxjICuUAV51KJ8VgIhD6gBbB8GP7gtq9HtOz9MF4WQWAgBmIkBUKIEsOL9+FxqCnnnlZJfHgc1Ar4QkaYS+YpLiiCOJ3GiQnuoTjaAdyb27Z1aVAlZFfZzWVQHxHRNKYCzGWkOvTBMi6oGLqhlqnH0ZJjmNGnx09cEi+/8U75DNf/Z9SXG7txKqaxx9uIRKtmi/R8jkSxA6sjq5WIHnSiWHTlEoYP/WZ5lcxDr+MhWtsk2Pa119OBwrkBThDoUeKysuL3wFJ/Rpa0Y8c6QCX14z7hxsOQIUvv98vhYjcKS0phVoRrkMEm0kWTtYoIoZUjkcMOQfcjmzOiZOuqCgoV13xFikvL1dcZgH28y4uDqANKxyPYOcA12AePSqO//6JGPt2g1UEeHP2oT6zcY7E33IdlI1FsifllYUL6sUDCyx9PBPLlgE4kafz8cfE9adH6H80ptecAeqIwhP1Z8zvs/2FSYXJZSaKiyWCvsbqG6Tv0kuQMxNW/HnzxAXHfvOPv09by2H8waJF0DyxSgBAAO4vNn++SrXHLT2KEWY5G4Vx5ExMnEQQg0Ppm0/cChdCWr+5JQaxPL1Oj3shwY3JiruGYvIWcJlXt1TBKIQYfy8s8FgPR4vFkbsRXkrO3ETwmgGOnR+YZIQO9/1YiH7yjR/Ke//6wxIsCQJkOQrSBSKKifOHlp4v3vZ9Etj5FMeZ4Xa6ayARXdf/u+/0tN3/7/fUXv2XnfYl+v30o8CMgfO2225zQBy+ArrD+alUDFyeGxmQemXRogaI6BhwQKZAwKN0jBvOPU86YcXu52TGWCMXcMKCczKGpQV2OIKBCKd2n+IwG+obFYdZgn2DgtDB0Umbk0FJ2NRnQhQ8vOVRaUAiY/e2l6CDgjWABohgscRvuFkE+SUNiKQODHrfvjaoP/vAtQZVUg+zAIAL/azjGUwARM5Ad3DCLp+cEzDB02J5eMUKiRIwr75KklCNKKUfRN8kFhDH6tVSTG75ySeFluJJG57wgKJNc6znhBsiV8f49NkoXPxefXUn1IZ82JMcGEDLUDQpzeWIZkqrWibqG8HVg/q/dgM2k8P4CcIYxOGndN5jR5gacA6An6ugUFzNi2RJCyK+Xt0Nl99etR3L0MCQ7EV/e9o7oXdH5niMc7reWQXPBWMvWRCUWMUcWN1D4j26Q6JYhJ0O1zlY8Bc6DF+Pee8dDxpv+QgejC6nIwXGsk/TuAMAZyoWM8FAGvOoRyRYDUMc3rmzVXF8nAcEMm7Jy+QaK1esksULF0P3REd2e7BN3HASST1UxBDPx2h3QZdYV1cv737X++Xss9bK+vUrAMzl4DiRpYc+fBjE6ArMxR4J79otL93/oPzqsafk8UcfFzc7CABM3HizxD/8CTHXrBZzySLUDN9J/K2vK5Pe3iGlc1PGLM44piDD3jaIHZ24oyfpV4rlDgBjvLFRhjacJ/2bNkv3TTdKEgsJTcRKLYF7KYOurvKCDVK1bLGUYpGgg/jkKI4bAZceA42HVwBowHkGoX+crULXtZaWhUg7CH/xSa2m1G2nZHk99o6CpwABkAJEelXNeOcxqxBcC8FhksukqxKV1xybE41Buhc1I/H13/3DJzB2iwCaFp9BVVN/34B89wu3S29nT6b2Jt0aegIuNFlYJuFmjC8fwB29RF/hFmtWQBb48jEj8Y/m8zo8c4Rgp9mHGXOcvF+obHrhgvECgPP8SijT9+9vVy4ZQ0MRrMj03zRhpClUus1EfLma2IePHoYbZVQp7Kk7mqgox3CIpLSWZ4vlhcgFSS4TY1m1w3lH/Wf/ABT5r70sTbteloKHH5GnYi5pcHmle06d+N56HcTzJjHp1I2Jp/xR1H0Q5N3w9yyXw9iHaN68Gri2AE7BYTiOtQOxJ+7nRPeQj9/GFcvJ2UPcJSwSDArhxVCI6Kgy7K3EBMPJyy9G1qlBGf7Fb8SAS9EJSxpQonPnwnjmFifWGh/unSGIs1HostZxrEt8jOjiDUwCPBlLXgwOugSO8HRwP4ItMKj/pmW9Ae5HZMbHFmvRYNVcOycCTHUdT+LJWEBSMBRxG+v9+w5BlQA1B46nIMV0gePcu32n+JD7IAgjJHXv2cVEeO3Q4o1StP1RLLz9Su3hcRnzvIbr2v4u45Fjv/n2K9Vv+9Cx7Ov091ObApNXNE5wH3ff/e09N974/rcCOKsxqPzcu/zw4U6AkAtJNUotDhBzjinBuFEbEwrPaWxGOBv84rqhrB8RczhWyQlYeia1PSsmgwlww46Zcjlci87bcIGsXr0UoNagOMxAAHsHYbzyxUxJMFDJtlf2SSvab913VGq3Pi1+KOprIcZX3HKrlJxzrniWLoGYjhRpnF28cKRQJwurKgCCXCfvgypN5ytbxdj6ghh0Q3kDCiiAtsFJwlgxvHYtNklbjJ0lr5PhlmVAAXQIk5yiNHXBKqkwAKgZC1hBOrTUAfE9fvCwJA8dFnMIXPOJADBtuxi68CKJVSPaCmDRBNWFewp66amQaQjW61AIAQ6Pwmg3iTb4yKjf/Pjm+QBPWtaH5cHtHfJvWw6o7TvqkIiYQD+2EAQ5tiw8xN+xP+f4xnEwIF45gq01/uvOX2N9Hc20xKvpAbATKfDWXnAOItmCGEs56oToY8L67u6EBAYrOxc/Gk7RjWqM82uwSWj3Z26+/PUv/viBU0UHlIMS+lA2BfLCcbLSVMr1F4aR+InT6d7MRBocmEzu0dp6TLi7JV2TqMuygBRSNDb8ogi/vGW5vPLKy0gwfFRCwyGoEKEnhSEpGo1IZWUluAmXNM1phg5zKcTzKmlsrFFcrAWYzJJDZ3cL7LZvP4A2h5CFqQ87IMalpr5ODldeJy2OYdkAA5ADbjV+bM6WhPO0zWWOJQiGMwrBvaGhUg4e6pD5TZXivf9eMfqQ5Ftxxjkmx9hK8vrNtpaHV6yUeGWVMvzEa2qU3tYSy9EcgI7cpQ8LVe04OTILr7pUUjBqhH56N4wdBJUJ7gM0jbS0wIeTHgkWF0un8tkqlBoOHzkqAegLrYizbNAb2zKfUgBjpw7+ldRLf/OxfbK9bUhFAD29v0cumF+G8EpLh6mu5K3iPqhySGF8qfFCTwEFdNYzH9sCvgFkE8hhsHvHLvnMv/1M+SNjbGNspPW8+J11DmMhevjXv5NLr78KLkpN0Opk1YevpgPGopYLJPjiA+Ie6kOzoClkdxg7y7GK/UPKcK3s3fL9vy3dfIvOJH/cgzg1D+QNOG+88exjP//5cy9C+9SEATavvr4CRqIuxUlUVJZCfLZEHK74BM+qKnBEBV4kNUZyYTirh8NhWONbYaUsBbd6SBrq52ASDcPCvRCqSpfMaaoF2GIHxSyxnCA3AI5g165WhO0NS1tbD1yQitAGdJ4VJVJZ2iQJnOMrLUHXsNrTMDRBYf84sZjt3QdjSD9uKYDJQcfok1lyieW9MP6Qu1RiOTrKKToilkMkJ3iOVwyAoKuxQTyrVkps26tITDzBowcoxJHcOdzcrGhWQqd3AsUsFeqSL968QX6GfYXI5Z2oFEBPeeWKGpVomNuZzK8slKMQ1T+5ea4sQux5MbhR1kL6sJhYKNUeQ0hWnYC+2o8FSP0I9FILCN+Paxf3i7ytB7Y+J739A6JgGGoOJ/pqKAV6WirCc3jsvodkyeoWKceYK4D+nEzCaEEvQLsU9JyJYBV00xFxxhmeiXBPjEdY6mscputK5BF87Nj9dzxRffVH9o5eqz+dqhSYYPZMrcsQscGcmJ+5++5n5wM4G90etxuZ4LGHdVIeemybbF5ULb65sNJCPKY4bnF15ZIEiDbOqVScBuPJKW4vW7IEiTngtI3BXFeHPJDgjmitt9yLLOzgxE/CqPDyKwex6g9jwzfLr7ixsUol8mhqwsSCqErOlHNeWdJHptLE9wa3KsUNNyBSKfXko+KA077lczTxdfn4lWK5UCwHRz589lqJlyOMcMRazlA+2IRxCjnAUuiPC0AHcpmTSbwRuOQiSfYAPPbsxXOAZIjJe1zhPMfiEoeVnr+DiVXRPHZik+POz8MBgmUHjCw0Hra1wWl8HHEdXYN4nFKO7xctLEd2JEQJ4bV2TlBuXFuraEHjj80l211jjoQYwC+Fax1cAJX4g1+ZN4HW84p6SQ32SKofmbJGAFRxhfJqay8AGtu7gAtPQtcJj04sqn67anxDwQP5ye0/QB5Zv6zdeJYSxUdOSP+OlUpCizfAPawTe9LDCMabwcUJzAd8rAf7+U1Pyvza0Xvv+HydtraPId+p+CVvwMmbI3j+7GfP/Cf0jM9Bn/mB8rLiilTb0eKSxx7Hr+diY3JsRQ39HGQycAGwDGOQOrGKeyFWxeNeiOYlGHTYvA2gQP0Rgc8Wxclo8eXBxKCuyfnEk7IDBp8D3WG4eiSkproUIOkH0Fbg3YcXjAaYVLyGE2lKhTo+TCjPwf3iObxf6aVodZ/dAg6GOlfQJAL3ovHFclGcZQE44obyIoDaFPqFawieqd6+8Q1FFCMZEYPVJj23pZIc5yyXlmULpRGBB21tHeO3hA4V47lehpjyakSDMfMRF7mzGrH1SZoMfN7ZBdE74gUHnRweEicWcyaaMfByllaLd80m5aeZHOyV8OPIXUDuE/du+bnSV9SDdQzxk5BCSBHGonMXAidB1y44fwCuSvt27EN0WzW2r24EIGaNOYAkddRDLRdK0auPiAuGInKdqFHVgrUiYDqcN/tSqcojD97+z/VXfLzVrl6/n3oUyHj6+encO995zoN33HHvn8oKK/et+ONP3++MxzcGOtoCzh9vlwRE8vgHPyoytxkICD0oVnJunMWxag9Ea08ZAqQFelyWMT/UYGYo3K4dOyWMV/Wr22TuEWSvOfcKgPESiOQFUlGOzDbgTPkiVhJ0raUdb1Mp1H3t2y+OF54jS4AQzCmA01TaSZ9rieUJGYn6gYtUaM0aa6VQ1nIL/Gkpp2hOS/lEYvlEXXDWVIkT3gR8JWGYM7K4O64ZQ3BBoh6VC46SDmb5/tlfm8ukHjzXQsdHSeC6enmNXLuiVjn0W+dhScPjIv7wadt/1ceMP0qvSZcshI0afmxjvHqzGPDTdBQWo2J4t0L36KoB4LUdVFcR0KIAzBcPMH7ergguRYgoQr7ZdH/ZsFVIx/t//CvsndUgtfDcgNY93Z/0CRyQ0HUmgpVwG4NrE/w7lUcHxSGUGBZ/h9M5D5LDO31xz3NDv/n2bwu1tT1NvFPvLe/AyVv8yEfeMvz8unW/KC9vWuxymFdEHRBzqCUa6BP3HV9HcHe5JK66RszmeQhtrAR3B/EJg5QjlKnLaMqmXkoAlIzeUdZvGIuSf/iDJLu65PNPbpUPJIbkap8B1xO/FM0pFxe42ADcUzgOLa7DmkZTJjlBgtzIC8+K6/lnodhHDZgos1EUT5chlkebmq2onyz3oumI5RP1N9NQlG3wItXochNetAiO3DA6gbObLTekzD7SoHjFFRfIk9jdkjptwmRmYThrBXbVPHce9OOIUYfQMaaM+7Q5GMgteiFeAzS9KzeKs6RaHEiVp0R1uxZvgSWqp4GMqg9e2oOcnHznELB6RIMkdjKCbtUJqcQu/C2GPdqfg2dAaVW5LFy5WBI5DEUEz7GGIrtWahDARKhcL64vRx2J9X2//ebfF1/zsT50Zdzbs9vX7yeXArMCnLyFs154IX7syqaqKLboAUeJ+DUcxOhTMd+hIXH95EdiNs0VE5ZUwba9yQsuwG9QmsOpW7iVRbBEnC8jyqekWJyM2oHzuYfHewekxgjI62XVsvpd75AGKPpTcJXh5OYAt7mQaZGRfaTx6OWt4Dj3KHE1a/5Oq9rjL5pALGf7mJS2exG5S2sL3imK5cc3OnJkfEMR+oW2wwsWqHOdWMjogjQZ/elI5dP8QE4zDL/eJYvnya49B45zfeI6WoTwyE6ETFIgGI+zHNs88AbisYEMRu55LeKeu1yJ5QayVx1XsFc93d6sQrc0kRcPdckg0tGR67bgjb8SUHkexXaLI7euAT7jome2PCkbLr0A1nXusEl9q/0r3/GFgJzDUGSdBVDm+UaqBEm/r0k6HUVd93/jNpFP7LJ+139PFQrMGnCamza5OhPmT91e45YoR489gCgLciCGYal+bZuiQwocqPvZJ8EVYEADIE2GQCI00+S2ve3tVtw1VnNGXyyGb+XHz1kvoY0XSpDGJnCa1A1aYvlMyIqpQQ4Xqc3cP/4vMejwDpcXTpR8Ftu9aFQsXwOxfLVlsMgQy0/kXjTTPilDEXKkxrfvQFVqtqoqLf0m2SuAB45Ul8y+ftO+lyuvuEgeeOBRlQR6tEfWrzROUWQugRqGW61YUGYPKruGrHf87CgsEf951+BZIvyUXOc4JdmPTFmQaliYg6M/DB/Ntn7EwhM4j78oimflQ0o+gmpmoUrgtz/+pTTMb5LKWrrhZfWRcyHDUORkCO/YKqCzhw7fadRDJfBWl+l5qvN3dwxWXvmRtsx29Oc3lgKzI4PinoxHHkmkYF+BAn877OEZd8lRkn5xWYdo7BjoRc5HZGOHxZfhjY7DrUq3aHQcU7+TCyILkGxultTHPyW1l18uy5YuEi+5VRpURlA5o5mpfER3yMUYW18WB7bSgH8T1AbHi4tTqTL7XOoxGSaZLCxSYZKh9edI53veLaHVq3AP0KOCiyGXyYiY6mAALjVemVeFSU+z9mwULBLeNSvEd/GFAAzQlwVzOrx8hYThWE9uSgUDZAGDdeLs/KV++7zz1ig/3UxWjdCDuARkMypD1vdi5NsAwHEBPlEBiLmbW8Thgy5zPNCEMTK2d5skW/emhxEB2tpr6JcvHFR0yN0MWOAc447BHG2H2hAkhLBd+IyqPQuzK+B4AyccaVwmCT/ynVJUyiopAC5eAYfH+Tlouv7efO2u2UkUkNWu/jo5CswacLL5cLj3SahtAuQHx59/GEUjQEr0wqBS2nh+5m8oyPwTv/Wjkrj5/ZJatUo885qhyGTm7jyAJqo3IeYbMAIZr7wkrkcfEoOcR7ppNj+zQrEcwIS5wVRvjC3vete7pPfqKwHWIH9aLKc4XFlUAP1dgcyFj2t9GSKbZrl4V68QZ2ODMhTRy4FgxXj3BLJM8TPdnVxc3E5SYRrAixCFE2RUF8cB+sBCjCyA58VapIGLY1GjYzqTBavCcybA0Pj+VyXRgwU4u+A6ZnlPDXZLHMCZOHZg5Jn3YFuO5w90K6t9Nkc5Ug3apAdIdmFXYmAC/uvr38bCA9rl6hv7DF1npAHJvQHoHH+kd2bhN4YaY0UNgtu+rPdg36fBedZmnqM/v3EUmNVZ8XcrViAZtzOJgX/12GEx0Q1zxhC1MGgwqBLX3yTJS65AIo7FgoSb1m85BuxENY7/G9oB52XA4OT47rfEue1lJGfAZJiKi8/4lau6HADG+Jw5ipMbAnD2X4qUb6yfhgASBcShWF4CkKJ7EcHzZOgU7W5zEUrCwT/+MvKkYpYPr1knwwsXKP/IErh3FcGSPy542JXk6Z0uUFE8j2LkU31qy1Pg1rCg4Rj5sZa6IllWWyi1yFYVwXYnhtsv7grsOklDGg2KfG72Qmv3B8BjAhyZ3CQJH03WZSahy+zrktTwIMJQX5foi1vEhNqIz5y/0y/0yT0d8sX7t8kQos/GfxbcBA6iOpzhM+nDz0yTFywrkdKKUqmfCx9R3kB2Sfc1GSgRF7bdcKJfx/Uf11AKwakVeJ2Fz89+8eMXt/7Tdx9MiwjZlervJ4sCsyQHWt2vu/fe4fbLr3sNjNUg5uTkWCgMdmaWSSEZb+Kd71YJhbOTccycOABMyD+KxUByZWMXMsLv3yfG4KCy7M+0/lxRPypHZpa1fCTqB8BJI9AbUUYMRauXI/HxQUkxXBYgwqiWKlixM0FhNvvXD9wjDxkrCoiBHJd1CIY4evCISjVHjHmptR8brlXJCuxuSl/MwAXXwHEdbklYXClqx159Gldzwc0oaVN4/NDrOAjwPJTOmwDRPdkLHTbZQWWNwTsaSQLhXobDO4GToDmx0z8AEosi99HKLuQ0D+7cJ4eRFGTN+WvRKxiJsk/iqgnQTQQQBFJQCjUOEh8ff5biuqHuwmMwSr0u91f6+grhliJ86fIGUmBWOU7e118vWziIzS+vMkyj7rjBk33jPAGTtmvjpRJDMg/P6pVi5kzGkX3hVL5jcnF+0UyLvKDOh34vrnt+jSQaUNLTLSp78k2hanqNTCUZRylCTufAI8BOxjGFpvJ6qqcJ/ovITkSw6Lv2WknBzYagXg5AV8mj89ra2MrIOvUBNCN49t0AMT6WSmysV4Dk1M8jFSCBmy9mPQrBUt2Fx7QcqQSLlq4TZxD7SNFqjuuSiPzBRlQKAMe2gG9EXrxMGBhVisAwdNiK3edvfEECwDsTKf/w8Z3yy5daYaACJwldZ67CYcpfmEaRL9adeSb7S9eiIozdOQvnSREyJ1HqzlkInp6AeFtfB46iH2NqGr2C3YX+uxzVxP7mXVenvvST+14b/VV/OtkU4JOa1QKus8tMyo+R2GC8oTPaPk8pKpYEMhi1VjYqCSwvxh/VAoY2RzdfGITGgX3i/sqXxPnkE8oARePTTIoS8TG5GfUzdP5G6b7uutw5MgFGNP4QMKnHHF8UnElvpngtDUXgOL2XXSxxpOshYNDZ3jNbhil0j4OhF4DZg1cH6NYD8FPgg2fjga6zuqFaLrhqs8I86jrdsA69Aq7z4e3H5LlomQwm1NnqRp2VdXJ0GGI5+k2MJE35flzhMSpM+aN9Aj5CvkFI5iD8OHskiPj05TVFAocwi/+zATYNaKpuVoG2ANd4MaYMB9JF5Y3FNcTcV5/bCp9UbM0xkWANsKRmKlJcIylm32L/xim08KPea3B3Hzn4429ascjjnKsPzy4FZoYWk+zbBxpXvOp1Jj+IBz7hTn8mLM7JW27F9g+NKiSTSTuKi2fqDsNJgsnByUTuAAmJnXf+UIynnxRHWys4EIxqtXzgpGkUZS1HHclgUMLIth6dO0+633E99iJHvyHKcdJzKqiIH4BmJUCzDrHltJ6fSsVVWyMhGCwGwG2yZ3WlRWqPoelRZfw7Iy0GAJYhfCBYDgJB2UZmO1hoVcKM0spyefGxZy3rNKvESUPwADhw6Khccun5UoAMRzEESHz7B3fLo09vlXue3q3oXFHoU9ne6RrEohYnPH/1lYBpN4Z35tVMIN9qEgadJOL3z15YJ08fGZS2fvgUE7ChXmFUmwcJZrxQC/Azdx5orJ+DDFpNsvnCzVLX0ChLFy9DtJtXauvqZBg6Uy/SIHqh9vBiEVi8dsn4HCcJgi1lUvt2ijfGDQgxRu3+qd6P/YN7wu1As+s253/yk+/7/de+e/dEsDz2Yv0tbxSYVR2n3cuWR+4earvi+luxsv/WPnbcO/RLBjifVE2dBCvKIJp1S0/PELLJI5sN9W4Zq/px1453wJ4k2HCLHILzl3A1OnRAHLt3IcRuyPLTTE+u8aoY7zj5jdlKxjFem7N9vHRugwwjwOAYMlYFkedygvk7ra6EQTIwhthOGS+AEuvPtXwQS4APyg/yPX91q/zoa9+WIbj3UJQlR3e07Zj827/9QOU0mP//2XsPOMmO8ty7TueenGd2ZjYnbVIOICEhCUkgkcwFBCb5YmywCZ8NFxv72tdejOGCSTafbRCGy4d/CHwlG2MkQEQJI4SQBEYSylpJm9Pk2Pl8/6d6enZ2prun4+zMbpc02zOnz6mq856q57z53bDa3EF2oif3kFcAkBucjJotPc1kh28h6idirt+12qoxVdVyClE8COcaJTlMa4iqlXI7Y7AkIrzGC3X0WB332y7fYiZiKfPIkWmbG0GFANOcoGYLN8maiXBNb+9qavr1mL5+qpwC4OvXr7dZ7F/w/MvMIK51gwOU1vDWmenRaeNnDcvYNTf37CwRpSpo6zLTx/YaRYDma8rhQJ7bfhiB8xtGJ8npafayzEWyWltCClR6b+ScukttoiM/+9X3eMIvWngSR1FupbbvNIn3/g88NfwsxLhNJjzKJt60qXdGJbXY+tDtcI4Wohz/lIUGP0/n8GHjfPt24yGtmOfJx9mVvNVL5vjY8PIdZROoONqCZBziMDVNRC4lFa501M9C2lX2yAGAM4aD+Sqqg1bKh1Riecb4M4BYLvJkA8z5d+IlU9bw0UHzt3/+MXN0/2EzTXneTNo5uQKpAKDKTSexSOsdaVcH/2gEJQBpBfxVB15uPWECJ6aIAgrw3N98Tqe5pIdco1yjuQWJYffCLXoI9bT6Sb74wk+eRRB3zDMD6cqqjxwaS0v5My9alexoIGxTJVye97zLyeaVTqidnoXyw6LnBOR8MAMBdNkbXrDDhHIZANXnwWdN8Ps3m/quNpYn6zN9N/NJYv9WlBxAP5503R+0X3/oNY6zW7dRa0tIgSXhOHU/DrWJDl336ndjMpeJc17jlWnjfnn+KOXl/Kvs8frRAhwcHCPbOyVb7c7QpSw0u7DmfLLJjEoXsFB57RvkOSuG+//1X4xLgmTPMayoGBdsnjR7/bwpFPDnwqif6iXjKGA6VTmll1ymUVQPIWsoK28IPS6J5bKWDwNkCt0WYOqpFdIUDdbQ2mze+ZfvMx9/324LnOpT18tyrdhwicJU4OWR43akb+z//MaLU+GS4xHSyc0sHIGrjEx3hB1Tj9vRhZsI1yWiiJRugBVbQZ1zrnSWv/OCdZZT1fp76uiE+fw9e83+ITLVUyBOmZIkUk9SBO/Q0cNwsNMmhC7TTszeGLIVc5eUo5j29g1rsL4LDHM0+xbBMFbXjK51woRJVnNirS+8RtZ/r9/b6KSSPcN39O3kjHQI3sJTa0eqRIE8T7PyI35yz2MD79u8rYH1e+n83lkEJrmeomldJJnlTe4i+gRJPqy39sDQOHlByGzDhZZT5I1ruUoZL6yOki8OHmRX4Hf3rW8RAfQr4/vut4zvh3fYzO0O5Yhts29ydVJckyRkreVsDpWumCZr/dBvvBJdbB9jSo+Z9slUMg5xmS0Za7lAfIU1cVyKT9dnOU1i+RjvwTEQYJhPsUQWH4rpVEDLXARUSh936Ln9JkLuVYm8tjFHm4XIoow4fVB6Br00e92CftLGIuk40z/PDkXMro3dZjPJtgW89iSxnxY5bc/2kOIwdE1bvd9ctrHV7CWF4f6RaUbgP53O+SrvoiTcmzZtYnwh74mmv5VJqYuKrw0nvfhPnGN/09hwvM7Pf0gekgAuVov7zmqogNffkXQT/X/4+pff9smv3a73U60tEQWWjOPM3E/CG/uIP+F/O39TpGVOYyX4fnkfuSJxKwGIkpeSxQZgDDe0mpaBYTMyOWLa0EspishmTEKcdw7stwvTuf/n9Eaij5/9hLj2sPEMUcdIIZMS2bVlLWDOGavgX+eI5fNzZAqwAU1xM9rY1UjGUfA0l9GJslSIy4yyscVlCkqKBsy590MfIV6kL3z5NebeH95txoZVWlqAZJGLMxUaqve/3/ph5rLCZM7WZTwu83/v22caCdm9YccqarLr25NBT1NgaHtc37aE/eYFm9rN08cnzbHxqB1foBgnOYiKCErnGcA1aj541nc3mZDUBenO1OHCpgHkTtW33sQPPmPCeFssnM3Jl0n94DqpsNfxrasLJH+Lbz978hm1v6pJgSUHzrXf+tbwwete+XYW/r+cdGNa/IggnieR5CWiP/MUK9xjWvlpZqMk2zqNn0S0KeoQeY+RAIRzTQKRXI5/Akg4VMI+CJeM2sqMHKR7LT99ltDQoXn4OdXJOEqY+Sm5RJS2gMnnEOKweD8BZonU58p0s0+QTmTVft3vvdF84aOfIx/2wAxYZs7SUsHa7SeHJqUpFmvSER6HJR6cSpgxrPRhWEuNk7vJOd4124hcGlO2JCHvTFMGpMOI64oimgua+l1ifsd6kiXjTZF3AM5VEhJ3+DgGUhJ1R2LGpxr2+SfFkmfuweB5+Iz2HP+PLzZ2vvJtOLLW2lJQYMmBUzfVGxv9t8PBFthEc8lJN6n1KN2aFpJYA4EjC1a5GD3HFenBBiEl3Qk+ZgY0xVVasZjrMmKcPfvEArd/FvCP9oSXjR/BnSi661wzTZhntqifuTkylyKuvICpn7JTZCmXaC5LuSzmAsyyuMx5dyJLdIBSImu2bMT43IaFfdTGiZ/gOrVcEMN5+QpAM2nf5nXDn1pLlNvAVaiNCKX+VqXsK8Qkrescy2mGg+hWJ7Xu0r1rrN5VcK28ZJUaL9NURyncXG+acObXqYtgII6cEwAyiWwAZmsAy8EFZ/rXp/qMk1jZ43Ven3KT9/Dnd3W81qpPgUqu74JnazMnpczvLXqBwNM6BOtz7g/T1mq0orh60R9qmc/0X8X9y+akP/VwB65Kj+FLevxNrzcjL70ekYjxZsRybaClTsZR3H0s3dkSy+XAPgqOHOVlkwHNasxAHFwdBefe8t7fNfWNDVndelRQL0hqQusLmWUS+t6PLtEHd9cKF7hrlUoeF7YFYoD3I4fGzQTAZjFtpv8AIZc+RHRxnJmmuYYRzzs29/GdONHMNzk+WVPOc0/Asg9ay75crgqAWtuZEt1gTN3s9yf9R777cbIz19pSUKCwVVOFmfR//xu/YgXetHjX5YDh4r3rDEdcUtIxe2Ix9+uDI+br5AL95MBR8wBp5hD+rQgmLlfJODJRP6pbXlS9n8KmsiLOglxZo37KXUx60noxzbJncx69wEcgJI5z7daNGHVC1jAzn2DSO/oFZpkyvpkTuD4crsNtqM46x8ufsx4jjKzsizWGNcP4E//4qUFbf0jT0lXiNuvIB3vOrnNOEt+lzwxiJOza2IdK4QSgZh1HRFOCD3SWSp8oh3xvEUZFkQsDqkvW/t2Oty9vgEnW8WsHS6JAuWu9pEEzFzH4XwCeiyulMhdU/BMjAxvHRa8U6Wtyo71N5m9HBpI/mhgz9911lzl8YD8O+FOmEX2TALMH0auqOTIrfn+V71D+mOIyBwCH46IdQ5S7iARE1nUHdDxO0bMRortiSvM3T4KQyF6PcfA33/kWG/9tdY1Z2DmBlTjATBy5qGCt89KjgzQCy/P6m6gpZEMY9XXWJlCSsPEcVvg7nxgwR8dwlJ/Vb8JVAsQ9PX2EVaLDtJTgAgjSjl6ze1s/dEm/dLN2njkoAhLq6ezbw2CoGiyHKuNX5oT8n7p97s2DkbIhNT26djf+0vmvqH1bCQrIHHnK2if2PD75/k3b9rNIXsI6WULfHQGm1qnHxHoo29FBtpyze51oR7370z0HzcRU1CMd1WFcnLZs3GDO27nN9Lc1nPJkHKfsQTGwxPJMMg6BprjOSuxQgZ+wYwTH+9GxSTNIBU59yiUqhEForh6T0+DgPDZiqItY9l/fR1YkjILzz9F56pcy1fpV8EVUI3kBAFOLRyy4gYm4ed76NlzHVNjvZJTSXwIuZYiaJtro3x88bP7lgUMWcMURWyMQiLV581nm+c+71M4HhhEOFOMmOvo15240Lb3tuQz8dk72Hw2S4gVx/48I0tjLmsTlnjmGWopnHL0ebwOPxbzs7e/PHZ13YuTab2VSoBJrv6wp9Kzt/Bow9nUkp4TWUbWbMumQqcnEu3H0pqxsbHsPRiCU+xiVmgJ+z5+85GKnORRO+hHpjhw9RtLcSeNLRNIiZLUntwz7zyaWa9GU+6j0rMW9TUxOm6PHhszgCKGeAyQVlpcEz0dgKJCc3xQcIV3nxq1bTHs3RfowyAiwFjb1AchicGlqaTd9cIZ69mpSm49G4uaJo+Nm79A04+C7aiVqfbIQOW+K8hV7BiLmEz8+ZH66BxcoxHI/Y6nP1pZWc+WV11AfaRs2SdUVgvPmR8ag1Rdtwp0IHazeNIs1EZHcnc4BUhoSJy+n/UAT6QXT01zs6tnv5RIHLUOqMz/8nc+/YvaL2i9Vo8Ap5Th1Vx/8xS9Sf7Rh13+xR1pYR2ezI22mzMrfcZrLdAm9i8NlJtZQqnhzJ2I6O2ZmQ8lQgN7SfXZkwkwkmYY/7Hnk10+YLVhz15N6LRPuV/m5Lb8etXcXS8ZRyqyFFeIGYxg1BtEnj+PQPgCXqeS/cE22bMaavi4qlpLQ+SQPiROjSYSXe9KWc84iA9FDZhzfTizL6vnESTO/hfEBvfzSy80haldFotPpo5wmcHxg37A5MDxt1rTVmYHJmIlz7N5nURVgAPr/frbP/Pxg1Gw+74U2xv0suMvGxkZzKZmv1q7dYPoJflCmemvHoVfF0YcAvb6d6zFALfTnXDAxaGAi45SY+Q/jyA0JYJbfcrC5QVFBC05f7IDcpVANXOD6Ujd/9LcvfPaDX74r29tksW5q3xdIgeKfUIEdF3PaJ/Y8OvKeTZuf9bqeF3FdI7kQfTNJvYrpJse5C8XyGE7PKcoK4/nM2/3E612/ElvunLumJ3XPvgF3fDrulY5THE17e6tZ00+k0BnQZqN+2HpyYtcOXMj7FU+IuWK5Ml8dHxoy09QPkrU7gEFkTV+PaW0mKxNZj9JO7dnH0BOTSBzGMHNs/yEbijmKqH8Sh8rDlItQD0k4zj33AtPY0GCe3vPkLBgLYqXrVJmM7z923Pz82VHzzYeOmP3DEfPvvzpsj9e395pNGzeZ9evW8vw7+Vxn9ZlNcLwCaa0LRQ4p81bf2etN7651FjQL4hiR7T3HDxnnF3elS7XQn4+XeLCZuJASiG2lNY9DJW5P61Tcf/vf3PwdnJxrrVoUKOERVWcq/Y3BR2Je32vZRT+AeYhpIdjFUMZwMvxkE8ttTSO+S2OmFiy6sBn8lA6rIeB1rt/W55ABXU515jvf/ZHZf5AkE9On0I5VBh0KvVQAqRyZ0mVa9yIIpAXCoyir6TlKLJ+Eu5wrloPJHPea/lWAUv8qU0+pDtUdUsuIvzI/WZ3ivBnIUOTHDej17/7v5qKrnm9Fdnte+qFaMKsnXdvmTVssZyiA1t9zxXrNSeAp9cDx8QjiecI8Q2SQJBAX/eiObaSKYwwqZtm1qMxEuhdxd3Z+fAbIkt+9ZZVp7mlLFw9cjFjiNHHjcH5JlNsP/41QXiIloYEDt+mlfIqMUZm1OO+W8/6p22bthvDnbE9NB2tuSXmpVf6Xy4Lj1G188NFH3U899ejx6KbtT8HiHMFws4Hl1EwGmKLvUlUKCcgkRyb5Gjsx/KxuM7HNHbNiue2Rfn2IewHC7pQZRzsiiV5LKOEjGHp9e2PqlwcG3aHpqAemwtm7d59ZvabPbFy/tuj5LPcLRI+5YvkEByoCmPQrcMoplsNZruntxggUtIApEdwCpZCD/4fgIgeHRgG2uNUvehUcMa8FKOLWQm2fDkrx7nvyGTM9RQkKxlRk2fkXXGTOOms7hiafaSXvQRSQOnKEchxCP/s//6jpd46lj0sNEDRrV68zW7dupa8sSMbcrA4WZ/imbiSR86m4Sg7QrCnj0iPYMUA2ogSol7Sfci1PU+Pp+EGOq3/iN3BfUnIP0aDUppe+n+p65DyZ+vjNt8khvtaqRIGFK7FKAxXS7Qc56W+efuzQezbtfNhxkh4f5TZYoCnKN1AKMMuamllj2geArB0iyNvb5zgj0XDw+8mOpuPJ8/uB33CTS0ByJhmHXFMCFEXzA5p1ZN/x1yvDThJDENIN3dhNgcJoW0+re/++gdRYJO4dGhwy51FOV+J6HenMTpc2K5bzIik5GUcWYkgsF2c2ODRixhDLB8hPmUssl4Enw1Xqc5rnsO/QUTOO4WiCipZRSnpIVSJgmN9kF2ppazbdiPmTFJ1LkENg+DjpAzl3y5atpo+0b8omFJDekflIBTA1OZm2xts1Q5/yoVTffC+QvQDA3bnzbAAdMJz/4gY0lVIu2BgyGy/bbjo29NAnenKO52zqW/2Qpcs59Kzx3EWplpHjvFW4ju98vEACpJzzMcf8HeUcwX6RNhJ5msid8G9/+OYrHv/EV75fS/yRn2Qlf7usgDNzF5/e8+j0u/p77k84iVs9nmCcNbcJLmKKdzN+y964n1XuhStkc6TkK4fTSiLlcQ7ytp4AHj8Cxn4zmEp+dvAPr/2ye2zkOcw8XRh9BnkZt4ebGrxe6umEqQOjPIkWjzGz2o3DBBLECWs/0beDvjO1Z2CC5LgRJ5JIOQ8//Jg1FG3euD4z1RX7mXEvUvSg3IuKTfmW68ZFR3F8Esstx0hFynGAiqNWnO7r6TBdVICUHlPZ1TNNACXH8YPUPhrA2BNFtJaDuUT3JnSZjegVM88oc03mk8vQPQbNjot2mVVr+s2Tv37c9Hb3mm1wm8rKLjBS383oD/t6V5tJwnalIpAXkipgNqD/lJpiw/oN5uxzzrdgK0PQfNC0Ok1Atm1tt9Vp1sMh+pQOMRdoCjD1QyIQE4UGP/6m8TxCpDGGMHGa4q4dXhoNXa325W0XXuamSvxkzup2fZ0TvOUjX7mdbN21Vg0K8FSXdxt71avahwacQKjOczGZOqW7OQeXkLMINCOhAavEcfY5rucg/OIYHMWPw8GA03bbrfsyd0UCZd9zSN+pds9mX73vLxo7W7d4gv4NnOsnw0xQXKi4Fm3K6ZFxSs8SC49jtBa8/hum0MsHbnvA3Tc06RdX+u7f/23zsuuvMVs3b8wMsaI+tcelwxQrMjcZR7k3oYUkLlO5POWTGYnGzLDNsC5XGa9po3KlfhT9I7cegY12eOZT7kgC2gSgouqRaWD1mm7KZyhJcCEirA9Xojh6yqMHDpnDj+438eHojJHpBLIJ1JVZKIlu8/DhQ0bi/0HO37qFlIZgTnNziwV+FVuzkxNhOC4uM4TFe9WOtWRrAswBOwGdrlnQ7K7inxTriDXjPPqAcR673zgAtqGapa7TTwDx3s9LQS9wBl3QTSkHbHE9x/wX8VO/0/KS3/5lKX3UrlmcAvYRL37a8jjDveDt/kcbnwyau47HQtesCm843Do9vN2EDz/66PSORx7htZ67uTfd5DdbAt7RWGIVvoBn8cJ/PZvxJSz8OrZIvQiBXsxR6YjJAfRQbDCJezF2zO2PHXC/8eB+6tBM+gBm89EP/7m54bqrLQeVe8Tl9022ZBzlztIuIGgloBkWpwhwDY2M8DKS+EtsOK41/T1d1mouFyJL5xmwEehILD90bACwTAJ6MQta4jJVT0igqUxGtnFh+tpFZsxJck166LZ7TQyDTxZYm+1AL0vNQXpMvUD1t16iAkwLiPytvpR8o3fnWiueN+M76lGiThkXZ3ua8wvXcLHlMh10mM7PvksGFBJ4jJMT1rK46RvxYkEP8SIJojJKjzenjzJ+VRITaD7BC+iT7S/9/d1ldFW7NA8FtBbPuObecot3xD+4OkKknDdlrmTDrOdN/SrUAL1TI+Ph2NhEKDodAQ7S5JlOpCzX+eSxMb8sqy+57irz337jBnPtVVesCNpJLK9ojsyZu9bLRQCT5jApdQKHGYNjVKo1uQat6mo3dYCgADMNTmmo0TUJyo/sJ8BAqdHiytgPqUPEnwcAlN7uTl5K0lqn6Z8GtBQWcBWzEJh5LKBacMvyBJSWbd8vnzIj+wfSaJvlnAWHBHY06QmlVgg0ymDomr4dG42P6KJ6MuMHQkQZIfLPnHpSFxlaxFAx+ABK/923GRewdMbIsyk0BnzVdJ4XFUVdZ1vaX7MKO5DqpPAA7p8lg96vd179tidOmmjtj4pQoAqPrSLzWtJO3G9/JjjlCbZFnITPkwq8avzwUI8bjbyZLYJ7h9uUgBN99Mio88m7HqV8woRP4tdf/Pn/MK+44TrT3iaRbXk2MU8CTLHi1RDLrfEGXeYEtYD0Iw5d2dkzYrlEcpsdKC2Pi7ESL2cOHDlODoCI5TAFVOIwxZnOF8stR8jcIxRXSyC+7z98TFZjLPE96bK76jBLG3zuiNn3wNPgFTdPE8Cqr/lNlnfNVyqY9Dx5kQKO9e0NpgUXqdbVHXbOGXe1XECtvuPUt5Ka4fN/9depzc6EefHaFhN0U56UHRe6zNAm3IFeVC8S7qNaTXfKy+VILBR4/qqr3vpctcY5k/tF2VRrzg3/DyyPOTxDic/suemjzQkT+weP42/2e5yrw75A/9bu5t/tagg3jk/HUiPEsv/9P/4f093VaUX25UjBaVBTN3UcDilj+ClXi2ahJyOWD4ycJJYr6kfVSMVlykq+mFiuekFyeg/zI6f3VsTWWQ6T3/S/uNe4rOTSf/JjuT3uJwJHqWuzNq4LIf4qrZtgdQqdtQ+XJbwqrIN5Ag43iE4xRshlXUsdKseYaenrpNJlzHRs7LVgW99ONQGs7xnA1bj5moD32P6D5n+9+z3k6xjx3DM5krr0t64zfgxa0jSIhw2S/zNIohjlR9BPDszPN0zB30m9gMg+HZxO/A4X/XnBF9ZOLJgCdi8UfPYZeuLem3a/PR53f3d0Orrrf3zzAc9yNxTJ8CNr+SGK11XqAWdE0VxiufwxVVwvKD0m3FWGO9NnPrG8f1W31WvOgibXSj8qLnOKnyPHBq3+VJxqEBG3FW+IZgAp4yifbUmKk1SV1MgI9c0B0Ri+ndKVOoBhjD79eFW40CZAFUwfqeVEJIU7yvJuOVPmzP+LNu5SvkkgfML84Ju3mU9+6ENmGLertsYG93mb+9z/ecMlpqGxzhOiFIbGlhucfSAF9L3o4HlO0DNXgpRUPPmXYxMTH1994/tmYk3zXFT7qigKVE9eKGoay/Nk1rfzupt2n4933ctxilcGJ6/21P6RKXciGvc8/PCj5rxzdxk5xacdpU/9fUg4PRhH7yg5vQJNkqYs0UrGMYzhbHR8wgyPqnIkxACM2gGy3m6KnuGDKC4z0wSYGfeiY6SKQ2dsxW0BnuVMuaYDtyQZMwSaFrC4eBpg089+/DhHqPgoo43G6exoM81wbO343QYEdnnAR3154XpV60didpDongDGJpWjCOFort/95Fa1IjjnWtekDFeZp9/MvQkw5cYUm5g2cVQOKfTejS34AzPmgw88IA7fiWK2v+75OxNdXa2OL+TXIJnLl+iTJ+CapljQ/e6nb/7O8BINesYMUwPOPI/6/f/88S50a1+jeOI1sWQyyBb3rGtvdO9+9qg7PB3zxhQuR1sucewSz4f4USZ24aY4j1KbrhVgLhb104A7jSpFyhiknaqmT7kWySdTIKjUb+JGBZjtOKuv6uqwIGMBcwY0JZYrpPWw/DhJ/iGndQFgO+DagigvvWkjY2leM8PYsfL+kwHBzGfekwv7UqCZxBMgjlO/ANMlXFMccgPAeezQIbN3zzNWleAJ1btPHBlNXHfRpmQAD/n5qesKG62Ms8Q8+5xYOOH9yke/djsWqlqrJAVqwJmDmkd/8E/dnpDvVbjUvHp6fKpJomKGK1pD2rBfHxlJUujL+9RTz5iLLzrfcp0Ch1PZVI53YMZNpizQBDCFNeIwF0vGYevszAFMieV7D6ejfqLoMdVTHTHYjXB6EsvrAM+5gCmfSgHmBOL0wcPHAdm4BUYl0hDINqMbFHDOtcqfChpwlRv1AABAAElEQVRbLhOxPDo+iT6U8hkCTd03hIZplgHebNm00XS3t5i777lf1hlu05PY0d+uCqipAJlrCgb8CtygXno+x0fYhuv72M23f68CXda6mEOBpZYf5gy9vH/1JuKvoR7BJ8jy0O5H1JOBQBZg4uA9mzubTDfOyyG/B/97x3zxSzebu++975TekDKzj0hHxyxKBU3dizZctmQcipDJl4xDfpyylj9DtqIpLO0y/kgsbwT41pLAYxWiudUzCjYZR20KwFRauecOHLagqWxGOqcbA1N7W5PpBITqCIuVyJ/hZu2FS/iPBUzAPQaHGUF1kCL803KaAkx+5EkQRHe5oa3ebF7VZjZvWGNefO1VGKNSZnBsMvihW+8hy5YqFsmLs9QnU/wNK9wVr6oO1+sMDn3/Jmpq11olKVDjOOdRczelB/7jA2+4kGqJF7PMrwQZPUksuzYU0/JhhCGxW07EsSdsHPta8nXKNamjvW1ej9X/U36asp5PpRmgogfUdk6L5YnsOTLRCa4miUa+ZBwSyyMA4XyxvMc6sad9Mi1gAjQy/KgOeT6xvB7AFLmXkks7mXDpl1BGLHdZA0ohl3kzCQQFmmsBzG5erGGkDWLETX9vr6XB3T+9TxFQ3LJj9g2Opy7d2p8K+km/wD0tVVPSZ4+b3DA1Gf/qp275zthSjXsmjHNqZctlSOE3XtzmJ8Midd/NbyF28mLB+oqYqU08PUgmcHEZ8BodJAbZ2tWiOtvJ4cmIV1zn5k3rrchuxdclvDeqOxjpN0sRH2Qtt1E/89yLbNQPtZgU9ZPLWp4t6kep4TJRPwLjDJclAJFrkXSZci2Si5G4SAGJxPJGrN8Cy3rEeh0Xl3mqmrhMAWUU4491gZJYrsnw7LkNe0/1AGV/a50FS3SYs1MVrXZs32r+4N2/Yz72ib8349NR/yP7jieOjU66azoaSangUB9o9vTq/iIVguOLh5uDqxnoQHUHO7N6P/HEz6z7znq3d96527cp2XouuqnXsXk3ykChZv3u2DByYbGx7fIJROm2rafF/cX+gVNqKJIVfYB/okVuRgFZRiyvRDIOxZZLl7kat6Tmpoas1vIovpJ7Dxyxzu9Q0roXdWEtbwI027DO+7GAL+YzaR9Ilf5Ji+WuiVLzSBKGi77WzmcGMDNi+Xoc5Nt4cYYsl7nwddXV2WHLrjzx1B6MZGS3Tya9jx4cSlx77gZ0nTIUVekG5nUrfwWvzxOmCqbzN698y/c+eOutWi61VgEK1IBzDhH/7rUvbk55wp8GU64htHLOjgBkiGzxorOTG4pKuOpTpTZOtaFIe/AogK4dwf5etOmc+WL5ILHl0snJLSfjXiQgtD6Z9CqQS/9Pmjg4xUNHTojlIc6b614kR3jLZ1rWbKFYLmOQQLsLET7jXqSxbP9LBCjziSSa6C6VVlDWchl+MmK5bkMAxIuSZ31CLLfJNOZ3NOfv/r5ey6nf+eN78HCwxEjuWN1uOptxkSK111KAp8jJs/Z7HedANBR94qNfuS0T5DFnprVfS6HAHHAo5fLT6xrXbTmHjX8xC8578h7mLx30e0ywtdHUU9s7SEoxart5NnfMMRSxuZbaUKTEHemNv/izsGI5O/b4wLA5Ts5KFUcbHiWhCdAgbm8dRhz5VgoM5ZNoRWluXJ8y5OzZe5DyvSPoKPFdBAAlljfws251LzHpZC/XTPQ/OCGxfApLufJxPrsPgxGgJONaA2oPGYpkLZdPprg4Kw4vPv2qnGFfC6gPosPjJjHFHOEyrZrA3gfAw/w6MQRu6cIdCv9RUg1aGFxsMjJqKXfrtVdfMWso+uQ373djcVImsZYyKozF+in3+wR6HFQx1zBrCSVaKrVWAQrUOM4ZIg7/+5danID7NsTzF1EWNucLRVUOfej+vFiZldczGA45W9vr3Hv2HE2Nk/B4EGfv85cw4bHCKuWGtHhzcCjHgX10HK4xX45M1N4z7JAAM+NeNMR1mRyZ88XyDAgIMAWCGfeiA4eOmUkcxE8SywHO+WK5rlvqJsB04LLlXrSYWN5I/LoAUyBaTBPXGSOGfdZQ5PGmkFLczb1tS2YoknSBp8IwuvmG8Fdu+1Yx86+dm5sCNeCcoc2f/PdXXI+U+RdwUvUzuJGbanwj7s0DlxYIB5xg0J8ajSY8U/EEhx3npz//lTlryyb8+jbk7aPcL+EgCK0kdptP/Z6vCdAG4P5UUVK/zxXLxS3aqB/hgjriR2An96J8UT/ZxHIZjPJF/cwVywWY4u4mpibY3AIm3lc5X1n57q7w73SLjtyLZqJ+ZARSHHuaUy5NLM81ui0ex4DK+vSLXz5koomkb+/x0cQVO1abpnCApcIiqnbj1siW1JBMuI/98Ruv/VGtiFtlCF4DTuj4yC27A0Ffw6qAz/cWRMwc2SNyEJxXeRCHzgs39zpX71pLQm+v2YsOcNPG9WaaGOY1/b05Liz/sHbdJBtDkUKL7UDV7YkBEvKVVE0dxZbnivrJlK5QMmI5sc9G/WDAkZgdgNu2ekz9C/jJUi7DzxD5ONOx5QoWIKIqR9SPrmHaVl86im/kceK7R0cmTHMLpXEB0Gq1tFiOZX9MekwiftBl2sZcBWEZsXx1a711L5IOW/dRTpOhaGBw0Nz3wK9QVxCiOcdQRB30JTIUwXVSeTnmeh/6xM237ynnfmrXpilQvVW6gij81295VV/A7/8Y6eM2oYcriedB4e/UEau9a02nefXztpnB/XvM9s3rTX1rG9wpGqYqxSrLdzMiFFqkKduPMqk3NZIyTUky0GPmivo5WSxX5ckApXtXWTejuWL53Kif+WJ5JzWCWogtPynqBxASaMrpXS5JY1ivR8bGre5T2Y7kklQN4MwrlovJZU71JBBZ39FgGsikVIpYno/88u1VWO58Q1EXsfTeJTAUwdSr1ac8ya++dNNF+758110FKXfy3dOZ/l3Nj5MV4PGHOtg9G8nqXfKLRL7REnAV+QLTaV6wfY3xHnvMTIwfMJ6WTtNw1vMR7XHqrjCABtj0qkFfCGNEzSWbLi2z6K3xB72ExGVlYS84RybXyFgkA9DBI8f4FOeWvvd2QCJIMuKWJsIkFb9O39q3ljMlnFKAGeFzFMCULlX0kviuRCG2pEZmchX4tHwtY0gsT0kkt2GSmkyaQ9dLgPed9cesw7VIgFmN1tnRnjYUvegK84Mf/cRGFGEoinzhndcnsM6zB/X0Cnj7lTo5dc+PN+X54x8b86NSu6ldd4ICNeCEFiSy2Bjye3sziW9PkKe039irlsNU8ofk+KBx0OElJ8fIztNowhvPM76mdk7Qai6/kTXSBOhKOTcX63H+1hRwpn04x2ydHyXinc2RSVIN5clUy4jlGkBJO5RUWCK5RHrBokCxjfK7SmUmH050amnABDStWM44xwaGiKihHpEyK9kEHmlL/ureTqsKCPjJuF4x8Ei/SBT1IxcjvRjkbmUb96D7kWje0RA0HcqSBHgr6qea7QWXXoI3w6A1FEXjMWd4Mur5+r1Ppl576dZYOOANZKZXlTlAf1RIIZNyIu++sPfq3cb8oCrjnEGdVucVu4IIOHwn1vSEcw6i9ivRP5Ukpue7XVnhBQgpyikkJqjFMz1GZUN0hJSX8PhJw1YmgFIKmezuxUOOwEsx4mMzceXizgpJxiFOs5BkHBZsmds4meEFzhOMo5R0Oi49cH8v1S4RX1WCN81pzof1fFTN/d1csTxbMg6J5Q1wxFYsn3Ev0rFqN2soYpC5hqJ9A2OJl5y3AVcunISJ7a3qHHhvkD1/LZnq73vdlf0Pff72X8y8Sao66mnb+RnPcbaYqcSoz/eGGPklqvqUtS9488eOHzCJwcPG295rGrdfakg/BpCeyGNZ7BxkEG4hEc8xxSUXeLGin2TIEccoY5GSceAZkLXWT8aHM5tYrhyZIa4Tl6kXgDg7tZxiOS8RieX9cJkCT4JoLOJrjHLbomI58wsoYAHDj4w+1RLL892HQjGffHoP2e6b0e2SeYpwzE/ddn/8f732slh90BesJteZ5JnDGARJ1nL56tU7xXHWjET5HtYi3xW61xbpZuV+PTSaXINgN1GYW3OZ9znDU6SScZMY2G9Gf36bmXxKFVxLBw5S5FrALOZBIpia+jBGH2qO1yOqduDMv6avx3J+GU5RQCixXLWEDlLrZ+/+w1anKfyXtbwHnaT8MWX80fSlyxRgCjyPIpYflZM9Pq2jiObqM0Ci4/VrV5nVlKlQDXSBptWxlnHv6achsTydI1NO7ClCJeXEbinKXDW2OEol49jYQfACRqhTAZqZlSOR/e1ve5NVHUxMx3zEsZtH9x/HKyqZqLD6OzPk7GcilXRIM/dydNAi/cxqnP269ksRFDjjOU6/N3iMRXRpbCYuvQjalX4qnJeYrAR6T3N4j5mC+wp0r0f3SXGwElojqDlOf5kookW74Pyg6gP1dFhLu5JJCmDUBH7iLrMl45DVWwk55ifj0LXSdQ6qPDDAJcNPDD2o/DJlue/tUbVLRHJUE3LItoBpkW3RmeY9wY7KXEtJxpG34yp+KUNRPx4KGzasNc8+t98cH50MLZWhSM9W75h4xPcnPLJ3VPE2T/uui2FUTktixBxPJ0zSYxIdS2oZAMh8FtGJA9eVROc5+cQDJj54EKtv3tLwOXuWcUhvQHGfhUxDwCUuzCYV5hoBn91U9CEdpn4UJindpMIkcdWy/psdhEimc2RiZ4BoAn9dJ5A9dnzIltcQl6kSyrKWKxHxxnV9JDGmUBm+o+CoBc2cN1LgFwJMObFH8QGNKhM7RqdsOTI3wWEqvlwp3+ZmMCpwmKqddvULX2De8sbX2nIjRKlZQ9G/3vu4icSTMQKLqjau0syxzltxrugdu+MLy7c8a9UoULmOz3jgdJOeA2z+5iQO0cU3LfIZmQcAIYcnQAJJASPbhCxqefdCmgObfPpXZuLxn6fPL+HfXh+uNSVcp0sEfvPF8nRSYceW7O0mNl+A2VyAWK5M7YrTFmB2ogIQYGbE8vx0WHzyIqtAU5ZyieWuAFNiucCfn0wyjuUilue6I9HnwvPOseApFcfw+FTw6z97ckkSHuuFh1vauUk3+Zpc86sdX5wCZzxwJkMxZcz9rup6F95AQnFtPlxZMO74G1pNuLXLhNu7TKAJgwm/B+op3tXYii/j4toQW9t7etwkxwZMfHQAfaH8IotrApVWnqa4z7w4naVbuRcpP+Yz+w7CbZ5IxqFM7POTcQih1P/ATJTQIEk/BhXGyUGJ5dJhysUoHKJAmrwG+EIcbrlNo7qKUKpwMo5y51Xq9TIUnbV1ozUUycNB+k4MRe5UNBmrpq6T5MqGEI++FGrnsR/8PX5xtVYKBYpBi1L6X/bXvPUVF8UbgvW/TwaZzcLCQiZsE32E6/HLpFBZcztZk0LGi9FBbkZewMKLT6IvVAewqvws0SECEKKHXIxCaVgTzJ3c1GcyMmlS40Mm1LfZRhudfEb+v9RjCP3hOIyzMsIX0xJw20eOD2J1peY4YrnNkTk/GQcDiDOdjfohOcYIiT+s2M9O76DURd8qABP3IlvzXEV4ysdLy2EWmoyjKVxaMo5iaFXJcxVRJO7z7p/+3MRTKS8hurNx7KhSRMEqNF5BADWSwTnG9d3xvzddcPSDd91VnaGqMPvl0uUZD5x//pbfDPq93jHEl9cDngsRbf6TEroCjKFWXGoAR10gMTFbs4lAFK0DmPiwJKeIF7fcF/o5CZ0nNf1JOU0pAlPoOgMd/Sd9XegfAk+FYQo8542QtQuBoUInBXKykitVnNK9LUjGgX5MMeXy+xwiu1Ic7k96TG38tf3EvQO0Ae5RxyrBYYpJ1bziRP0klGFJkT/yveKmRO+MWH5SjsxqsmpZqVfewfq6utmEx8Nw8HPj2NMJjwt5gsXPwRoCSSeL/nryWHP44b+79dsTxfdyZl9REId1OpOo9+XvmEJB38kSPYSD8OK3CufoDzfpjQ3YsJELaZynePVwW5cJIsrn4sTkFJ+0TvKTAEXxhiJtsxD/KEtJoQ9WICcH9O7ONtPS2HhSjsxsYrkif7Tx5roXVVQsF2Cih5uMTJv9OOjHM+5FIjX3pgAfGbYyOTKbiFaSe1Gul1chj+dUnpMxFElcjyZSniPDk86juCjBfVbNUDSzbJU9+vVNnUQD1FrRFCh0fxXd8Uq6IJgy38Di+JB9E+ebOCvOh9jth1OwJuJ852b7zhqOxIFyfQ70lL4zPnDQxIaPZOth0WMCz1WY10vRdVpXIVnL6SQjliu0UmWCZS2HI7IcpcTyDWuU9ANVBVym7qVsLlOACX2jcJbPUSlz/4F0Ls+jSgKi+bBSBZhKxqGkwp2NOO0DmNUOlVyU4GWeII59fsLjalfG5GlBUIUqOSHiP/5yd+Hv2TLv9vS5vAacPMu7n42O4xx8NOUmh8lWk/vpstQUz+7onJnXdu6Ts3wj4MVokgs07RUS1SNIThKfSzASqQ+xEOI8SwFPAaaSFwswVSZDgKl0aBLB5TQva3kHFnalpsv4ZNp5l/GPADNO2MxBEh8/h4Fq0iYQiZkEIC6wjgmwoctydS8q49btpXKKv5YEIKoiKvekpTAUJVF7kDGri7ysG97y1b/tLPcezrTra8DJE79vaChOmpoPsT/JCSydfC7wZLGppAQbulTZUJyZhz4sW5dttalrQGr62QfhA0p7PJr9KtyTBKC57iTb0DomMXmMmPLjg0NZo34qKZaLFhpvEI72mb0HMDxNmmiMImkcF4CLm0zwAnHxw9xILXv5Y57KqJ9cNCv3+NzKmEpGMlMZ06gyJhUJqIxZ7gjZrxcTgF/nztb2hg9kP6N2NBcFStuZuXpbocd3794Ns0kWDsf9PJt2KGchLmRYZRBit5fGcUIfcWnSd+YEXjaJjEikusOxW7ndS2/dgGexXKfi2GOkffMjEuslIfeiaonlMThbAabKjQgw4foB+vR/0iHXE9e+YV2/aaHO0zRGNqvgLJ0cy/rKHdu2zkYUSd85hG/nX//rPW4kkYrpJVKNBnerddjlddzOkW/ftLEaY5yufdaAc+bJ9lz/noGQE/wHqlfC6pkJJf7N1lRyQuCSE/iyXXTSMTjBYJjLYS1zNAdH+vjw0bS4nuOcxQ5rqxVrKFKfuu+OjlbTXN9gNq89EfUj/aI4wXLbfLF8mszxMV4UaT6fIAIl4MC1a93qVaavt8vU4ZHgwc1rGNFSRvXTuWUMRZJo5hqKUFVULY5dL0mMkq8gjOCNpzNtK31vNeCcoShvdbfhvn2DwUT0DR7H/R4+Spb3mU/wJK5CcXR+5TSLP7LA5GoAsxfH+uT4SK4zCjquEYo3FNnIEtNDfLks55moH2tQKGjU7CdlxPKhoVHLZY6RPERcprh3y2PCicu637eqy4Km9KlBxte49lq6PQpyUgn5tG1pQ1Gvuebqy1FvJ0l4PBVUZcz4TGXM4hUvi5MKVQAnpZp8jnfDsW997orFr6idIQrUgHPOOnAQ2Rte+YdHk3H3FpzBv4yhaBofzxNnCIngBmThTUlkL1GE8mANzoebGkAJQBw5zpfZMoYifRaCOScxldxv2Vwmg1r3IiKSJJarYJwAEyYq/WLiXjNi+Vq4zPq6mXruczhckV3cpkqEyD+1kPsok2yn7HIZis47Z6dNfSdD0Ug64bETT6QS1dJ1Rghd9fo8r/Om3KsHv/2ZplN28yto4BpwZnlYbdNt/2oS3r9ErLybTT2uLD+zeiY2dGyMEEOjsMjStnASlxvbcl5OYg3ydSrCo9wm0JGuUwlAlrrNdS86eOiomSJNXV6xXNU20a0KrLNxuOI2D/PP6SyyS7e8dnW/aW0jXJdnJq7zm/c/6Rkcn5ZFsSqPUPTGeyHkC/rfnEj5Xp9/kLyv/PyXnkbf1oAzy8N0brwx2TLZdCAaS74NfeYfI8XvU3YdYU8af0hIPDqE8aZ4rlOL1BqITnSWZQZsEXR9PmoVVaLpIbcwXtACUiV6zN8Hw1guU2K5fDKlx6RcxBw9Zn6xPFvvIpdgA4qbEd4npyt4an1093TacNaMu9exkSn/V+58GP1z9bYr+UDFHGxAwlp/6Lab1sx9Bo+4bmC/64Yfj7tXPTxl+p+IJX73ien4C56Mu1cwXwkzZ1w7I2+6kKcs8OS8/Qd+8OVbw9FYFLPFb2BtPxsxep2SYiSxeCeik4hUbGkifjIlMhbrW9J9fDId4531XNBBnKY4zlkuN+uJhR8U6DSz58axYsfhnlNYrHWs0k2AKcOZOMsjRwdsejnl5RTk4W8N6fiBAO3UM2ojrNOLykIF5ISIAozFmuYsrnMYdUkTfc1Roix26Yr5fu++A+Z73/+xNdJRCx36OGZsOoZOTSGvk6atpc6+lKpxQ3FEdupF/V4iGZVy/WO33OJ6z36tqYPub55OmuuZQztq54sxIB5y/KaJx/CfTyTM3Y8nEk8kJ70/2dHsDFVjXsuxz2rsn+V4n2XN6c47d/vOD/Y3Rcfc3/S75u2Ox20BLVcnyaiN3xDJPpQhqXkGjCCp0DEbEHDcRbc3NXgEbjWaPi/LzDwUdWvYfpkJ9qzL8m3ph0gkYfaOR0wMkbhSoJyZjRaS6rbvRyRX1UtxmBK3PZLs+F96zLTxp9MmAZFIrlYIYNoTZ/4RvIrvquefVYAKWojTqn31/37dfPhvPmMivHwyHKZUHh31QfPpN1xutm7uM0kQq1otTAgr+uev4uP5lSev/P2H2/zul3jXruOlt57H6ZWWSe7F0lvDEbs+jyvX04M8x38c93m+8AzvtRsdp/j0XtW6oSr1e5otuypRaaZb984vhfYdOhKub21/E3v2D1i+Pfjc1XvgmiQ6+gO4zmANl4O7dwYYhBpa5sJSGZQScKqx0cHcgMEm8bV0mcadl1uQ9So1nY+wRq3Wcht9H5yImElE3bjCFWW1zgbwRYxjFxB9xEn+MRWJGOU1HY/CjUOQCYxAqiAp0FSpjTpqGwkwxXmWM67oKZ3talAzyKedQxFzXo6nDpFA5cMf/zvzxJPPmCeeeMoumMzLTcDZVhcwH3vNpWb7hh7jDeu5VecuNGYo4IuN9O/65dSmC6YJxriYxVufgvvNhteivYQGnukYblS/xOr54S1+5wfVmd3y6fV0WHNLTs2xH3y5PR6LhRGpX4TL5fVex3sDmXzqSM9mFaHpHJy8nkMUMaN58duU+J2MTZLpZ2IGNHKQng1ho4gReX2ApreJLEx8Blfxwuc7X72Y3RzXFkAJLf4DIxNmBDbBR5y0I90tLEU2Y0ze7rRxmZA4aGUwkvuMjajisDZfBBFdG14/jRRz88HJ+EJseECbC/VP2U1+qgLPlcx1ThNe+rkv/rN59PEnzQMPPEhegBFewKqCeuIZ2+fO33/24l3mmgu3GF8D66ls6uXoQIM1tJiJLc+fTqxaxxrHGFcA/6goL1yc9XRvR+B4zPGZz21znOdyjLLiD594Oiv+Vpb+Bu7cvdu3/by+dl8ghe+n572EH61WDPCJhm5P/BCLXusRnpOfwkkufWH6esANhtNHqrlQHxunsc146xoBvbS4e2K8wn6bQpc1StahY3CfTshv/HCC7FYLhLPTm3sbmW61mbkRF4d17dz4+LQFXJvyTefwve4ufZfqIP03W4qXB9ZyQNYDgMrJ3eHTctFpwujqopp6F2D2wvpLCce+XXHtW3f8wOjnyaeesT+28ifSyvyme1WugI+99Fxz3pY+EyT9n8fHgtAXlWq2r5RJBcJmcvsLTbRjNURdOJd8w+kR+BAFkCbGU3HnL5jhN8eCZv+FjiOb3mnVVuByW170P3bnLQ2+yPC74RD+DI6zISfnpoVZKrUFLvZaFiXd+OqbjL99jWnYfK5xWOh61RfbIlhR9w9PmEnqIrMrbfdewMwLV2gHkwUXoLNsBNyjEpuogqS+S2AldxHJ7b0yocytqRdxHi31AeKtsaIDpFHYjwTz1++6BfvD7zZenys9FI0T6HlQGwhIixXhFVK6doVxnU89/YzlMg8cPGy5TDmhWy4zx0PU45eF/b1XbjMv3tZn6siwL/VQpZsL/SPdG83U9ivIccxLOZtsvsig6edMqkK/MxGLu0/FI84bYo1mz+kGnsW9UhYh2pn4tRMfPwsr442pZB7QFGGEGKU2gCbTFJqYGB82KUT++OAB42/uNPU7qM8uAC2ihdBxrmtvMsOTEXNkbNrE4W6VKDiB6Ghj6dk0noCSKnMcDCWQnHsAPAFcezNMyTKLfEo/oSl2NFBqmHLDXv7oa67HZzNlBicR45nzFFYFWdYnovG0CK8AAvWk44C0x4exjH4EoOpL+lchqkDZ0s7+oj9ONB3SbA4z75VgKJIe81N//3kjwLz33gdsnSdly5d3wWJNOs6eJonovIzg9OuI3y/2JZN7DCgJeMfbes30hvN53sBCCaCp/jUnPZd4yjSA7Wd76pKfCiS8Dz3ouh86x3Emc89hZX1TA84yntdT3/5M0JN01yNGb0uw8JakASpKeCydaWJ80CSniDDCKOUDQIOrNgBChT9SP8DUDtDVsXnHMeQcGcW4Q7/ckwWrJD4oFrTsVmBgfYJq2hoCTR/XK7IqTHhqbzOlQvguIE51poUQJwWgGYAdj8ThcP1GkSpRxhHJpmWmBWB58dihkgCrANNxpi2giguWHlaivobnf85Lz0EzknuSUqHQi3VP0rHl2DJi+c/u/YURgIrDDEpdUWDzIVWIznF8h8VlW3pBp4o0XmjJuiYT615rUtKhq4nQZTRrTOKRBAPe64mAujgQ8zz42LT7s7NCZi9caZm9lzGxCl1a+C6r0ICnUzfYibfjmvRq9ry/cm//AinEnhGAytoyRQo6b7De/h7oXG0t+wX2YkXrhmA6XZsq00qsHkckh2OwHKM2kMQv+wkmagMLOFux7Kq0RU8TgAmQ+ecA5vyxdblaE/pU/WSYmSG43WjKh1gP7HFOFEKq/pHDCfoPFLelfx04ssQEHDDio4fUcvpx+LEdMacEG18RRcvRUJRNLA9Kp1xEU2q9rSRvbuLloXyxMbj4YHPa8FhEN1lPdchIlUS/Pbn1MhNXuZYKQ1o0znMzTjtT/3ws6f7ksZjzx8+67tPrHae81F9Z72bpDtaAswxas82jJEd4CQt7cVmrjHEWu1RW8VR02ow//J9wnRtxZboMYKEyQhFNjvzdgKD88yRuj8EdRjGnWu6OzSTmRj/SYWbyYuYDy3xDZxglifZqKaKjNe7QZBTRGzcmxhZY6zMJkDtWPcA5iahxAHVHFUnFGSuZMoAtQ1OC+SuW3RqK8g2+RN+VI5bPnaJwTKqPCbj0LuglicDHS0MSh/K2lttSFBSMt/WbeEs30WpwwFY8KLfXOddzA5LFYojuSCRX4o32b5QF+SKi+z+sZNG9BpxznnGxv7qJxOaUxzvJ+m2W2HlKm7i6FK5BAwfMxBP3mdCa7cbf1FH0lGSECMJVdjak3wXauGq2zjois4apdNP217hdjWkgdRvDSqtmRijSlqJuBlYG2a9QJwCkEunhYjQvzxRZqgAVh/PiTOwwhqZ1DWkwrfQcC+1vvntRKWL5yWO5prelwbxse699ueg7qTOEb2U9C72Q4DYjvVvM1MYLjRugnEulQXPOjVCaBgB1wuyVLUgtb2V1JR+Put/fGjAPr0TRvQaccx5uMb+6u3d7jnpCe4JepzMSlYathGZRSTtA0CHLc/pTW4J4DI4VuTUs5zlF9viHsby34qfZRMniwvVo2e4gMwMbGpnthCoc05jSj0oNoOaaME71cVMfTYuqE5G0j+gY3Kc4VQdaac9HUhEziPpMHHPOZNS2x+r8I7H80xh/TrgXoQIpUiyfOzNraOG+zu1rMbv6W9PLgReJDzVJhmufe35Rv0PkeGOHSTZ0mBSRaul0XXZBFtVNcScTKIEKG6A8iwi8jyQ85qrHY+ZPiYV/YofjFF+dsLjBK3p2Zl9UtNMzpbOB79z0WwiKH2TVrbXZtIu6cS1SEnkgbqr56lpgGIm04e8kETgeZJp4FNEUIEhGpvhOVmgeVwFPTGKcl9LFwdXbTMNZl9j+T5d/Mltb1vkIrk6y3MdwmyJTupF/KmV1zRbKbCxliY35YnkEd6187kWFPgsZHJsA3j+9Zqe5aHWbDbUUr+0jM34jLkmlcoh60aS8QTN2/vUm1trDktILe2mbYvBRw8QCXucxBIivEUL7mdWyCK6QVuM4S39QYJrnh7A7Hy8ldljWbx/W8EBjC3o6uEIZGh2JS4AekUbaFL66BlyESMxByCVaTBOfIvIovrhOXbovVQJJTg5TbnjYeBvgVk6TlnlvNGJt0I+AFJKZYdyoZNhSlUzpA2XhL1UHWyipconlcjEqp+meBJrNcJZvOG+92dDeMAOaaaxUBJY1jGWIUeRgSVzXEs09RvrNtIEx8zoqsqMyTldILo1wMnOOJ+U2TCWcpocj8bt2Bn0/WAmiew04S3/4LunSOurCvh8F/N7XRdmshTcchIn8CRJKmWYhtYjYBVbHlPnkEH8LBAOUsbDMpj9oXLLCizN1kzMcaI5B5YsZO7LXTAK6TcS94yyY48yVfVjYIQ2H3KrUrD0ecsq4VM2WcS86IZZ7yxLL585VM69D4tjW1WKu395HSWQSW6OSUJPju723jFbHHi3wH9EFPXiqoc2M77jCpAgJlgfDqWw4yfPQnI04TPzPgOM999fku0Z0P4roTqnX5dtOz920RPTui3c+OhAafszneOIs5gJdkhQ14+UnY/UucOFympca5uG2bhMdGzSxCfw382EDXwpcEyPHzPS+R014/dlLRJVTO4y8APLSpczp5XIvyvcoihkyDicmM8p1Z/WaN1+wAZUDkVpzwM1PlqQAsf+W1S6m45lzYzi5R1ZtxhhEnoICl14JwxR8ieUVdMfobl3XuRZvtR/CbH8O/e7H1Mly5T5rwFnwI154Ijk7Y4Pf+vyvia55ALHw+bEZt5mFZ845glzpCzdbPdWcowX/Kg5Uxd4oRIMz1JRWVs5rpQ5IjB5nQW4FRBWhU3vcOYm1yBcLxHKScRQa9bNI1/ZrJUOhPAaeBWFXXOb5fW2OuGiBqMU3/tGjVgIZD/rBooGTdSexPLJ6l4n2beZ6OkyjViHTq/o5yvHAK89P0NJaMmy97nGCcT3J+O0MfH/VBy9hgNpOKoFocy9pu//Qvw9dvOo3eTNOkIihQX52eZss34Bexnk977nZvhTwYvhJTI2zixbfQALa2OE9JtC1jqw6M1Eh2fqtHctJgaxieRFRPzk75gvxlxJX6wI+87Jz+6OrmsLOy7etDtQHUbUApLNMIeyhEqT4pZJQjtMT3+TrfvY7Je+IrNpi4hiD0qA5+9Wy+cXSAts6IbjnEO17TizpbcDfcwCQOrjcrO56ArVWBgXECAzfdtNq12tuBzh3xUmIMbvYs/XLW94PgAWbWtDN4c1Wwltf/aewvE8PH+HyvKNxJkYmUtO1XHQ9mZCILqq1gimQTSyvhLVcE9BTE4epsNUrt/TE1rY1uNdu6fULOFlDJ6seOVncZl1nm/Hj4yp1RLoH9VRAQ9pItHab0fOuXxZ6zQJmDFdt73kSQg3gufL+Ua/5NolCELGWR6txnGU+B5aw664yhymDfg/8Qavf7+2P4SaTs8FxJhGxHU+brsx5Wr4v7NvOepDwj/w97YEcVzBGKjZFCrhhE6gBZw4inXx4vnvRNNnYqyGW7+prS57T35q4qL/dez4/sqTjFbDwaXJEvpteFIBFgybPP97SYyJrzkavWX/KjUEnUzr3X/jma13XEyRWz+3vbkqY1z8ecf/srJDzRO6rlu6bGnBWgNbOhe+IH/+PL/6Rz5PoRQfV7TipPIYiQgXlLkSW9IzbUSlTUFo2HyUw4tOLJJyRyZkN6W8CqGttUQpkxPJSk3HkG2C+WN6Lg/8N2/sDDbgvCTAXvka5goNUnzR1HW349iqaa+FZucZ0UOukeP6x7vUmIr0mzVlEk5Srr1NynFtVDhgcCXYQObaBhbz/Kdf95+PGPH7pKfb5XPh2OyUUOi0GdYa+9zlkIc+bKBfxm8oAlG+Rh6hg6ZebUeH74CQiURPGTA9QuwjXpHxNzvAq59HyvJfbBMj5zj2Tv8smlpfrj5mhpx5xwWJ55qKZTx9cpr++nqQecIvzvsv7J4O6GJGm+7ab6JodZD9a2b68Uucjvss48CT2sr98GtXYDY6jXISnpBX1LE7JDFfYoEO3ffGNjj/1YQq59SNWebMbi+TH2cCGaLEuRqWI7MoOHx0ZsE7x+XaUQjf9De2m5bLfKDrxxwojfUnTzSWWW1/Jkno8+SKJ33L2Pnu+WJ5MOnPdjE6+ir8APqXTa1hF6KyNLtNWLeIti14z2Yxe88IbTJLMWScrTReMtiIO6Jl4SeFFfaNH8WT5YcL1fG5H0Hn0VEy+JqpXmOrHUgPfbI03/9rv8XwZfee2SDweWGjAwTePKCCfjREuYjPMnSsyXJIcmvlAU6cr/t3BcT6F0arEShtzRz1tfl/gXlRCjsx8xMiI5Z2NIfeqrT2xDa31zjVbeomV8OYQyzO9pcVzf13IhPDX9CoTu22FrhO59ZCNqL0PveZ2MrlT0XSOH+hMZyvyQ/tIHn8oLLZjeV/rT6UiT0YS/zk25f3JhW3O6FLeVI3jrAK1H7lld6Cvue8FSdd5IXHB78MlqCEuZc28pkqYgeYO65dZHNfJY3PjZuLoIcIN8xiiNB6LrYHIIdUqclRXqNbMwmQc1He3tX4ETuVtCfUwXyx/1a41AYWHUj45ix5z4QPx4prkD4dNHRn6NR3pOQtucLgqgTG17TIztXaXSRfqLaaDgkc6dSdCE9lGvT6Y9pR7OJVw3umMmx9v7TATS+UwX94qOXWkWxEjH/nmP633+VLv83t9L0V0X8UWCJ2UDIQd4ad+kAdA8yFOKaKokKY3b2xiFEv5CMJbvk0hsYYMPf1bTOOuFxbS9Wl9znyxXMk4fBhcvLDiQfIGyAk9EY9iS1vkZZSDSifE8tbEOf1tyQv7O7wX9Ld5E4uJ5XP6kwGooYtifIpHL9ZfUwiLODtF+YsoPptJEsfQyZzeT69fVWYaNa6L7nMvGQfvC0TNezY1OseW4i5rwFllKruU1ziS9J9DSYnf9Pt9b2V3huPJhGX9bHIQu9iJBiKc0l/fTBo4IkNYCSoRLOu7deCb2RA2mwWid4rNHRk8Rm5KGYbyP0JFDIVWn2Xqt1xovJmyCFW+5+XWfTaxXICpuO9wmNLFqDIaWtvJPp8w07yMItRzSsTTxeYKuZdM1E8nUT9zxHI0NVgz8MlcFLp4vjon0FBnwi2N6Qz3soYU2RzpU0kaM3Yeek0969NERF+MDH5qiaDyn+TnI2ybBzd7zR1wnqW9/RYbbOb74p9OgR3XTjuZAoe//ZlO+MqNRAydDSD+EYTvpvRE2BqP8FE/scYFomT9YQUoEYiAzwtHmoxF+QzjfkTEkBIWk3KuIG7Cgq7XBDr7TNMFLz7jwi4z7kWZZBxe/FpUhjdA2KofLjOEkS5UP7fwmWuGjx0y04DnYptDYBejxoiifl68fVU0415UuFie1mfKCBTEsd1PnfsAyZgXBdqTl5b9S0mJ422rzPiWS02ysR1Z9swyX+hZBQLEDsTNs/z65oTfPFrNRCGLrY0sj6h2qBwKHP72/+n0e6LrSVneSP6Gda7P+w6Yi4uUDm22aecAnGlg5JNXqSpBplOJUULXipIcL/Dp6XzVYQ+v22lzdHqLrIg5O68V9Es296K0WO5Lc5lw+PXNrdZ4Ntd4J8vtNAlUJseHTHSagnH2OSy8cVnKJZqf3deauGRdZzJn1M/CS086In2ml5yb9e1IGywEEl3wfZHQyeku6yPSu9VMbH8BywKVj16YZ1hTFQF2SZz30AFqV33L4/f82X/deuvkjTfeWHHus8Ctd4Y9gSW63Xtu+VR4a0PD37HIfzs5v26RXff8g2gOYrIRMkCpL+Y+tvl/55g8p3mCIdN88csIwcQZ3vab49wVfHiuWP6Tn9xrS/AiM8+I5Y3WSi2x3KpDcoCLwHLg8H4Ti5LZzALZCYLkEstViwn99dwHc+KibL8xhsap7yaMkkCG9CPVsyyyWYnCMZMYg6I9m8ixmcm6VWQ/p9Hp1HRXzMdhHskPkx5z678Yc/tuolIqeYtnFj9fScpVoK/tbaFVpMHeRJKHhVYhtqCHRLMexEkWgBXVLWckqyljszRYHDL+iLuAU7Hgqknl2Hxo2lLo7SYf+6lp2HUl+s7mCtzB8uoim1gegKMLw217oaU4TB9qD9FxLpc5/y6S6DoDobCJRU6khJQWcm4yjvli+Uxi3vldZfmb58P/qtRZ39WK+oUtuLgWNEs/6UMuL8AEtaWi7f1GCYpPF9ejnDdcwBdx5fh0nFV4cr0JYWvVm+Jm/I2u+4vNjjNWwOUFnVIDzoLIVJ2TkhHzikDQt9PjiesNeVIT6xIg0bGPqB9bhtpyFmQGx3zoYbPEiXeX7lP+mT42eQodaGR0ADE+B3CKpZEejHNSsUnjxShiMymcNOrK/CObWB7A/cdLCjZr/EEsb2hB77cIYKbv3jFRSpVMEtuvJmpm3Iuu3bZqQTKOk1Qs9orc/wisJY4HKb4mLlO14q0qINcjy92VnZheni7rY2LnC6kbRNKYnM8+X0en6XfQOq4Kfo57lRsw5yIMfPaRUffT25vMMDQvheInEaoGnCeRY+n+YBM5Q9/6p8eou9KZlfuBk1Q8elrFpgUgKCVuGRBQCwawmgpMQxznwwli9CCjd3wq30sVzhRj08TDPzVNl7yUjZsuhmY7XIH/zHcvUjIOieUB/GPDBBfIeXwxsfzEbSNq8/KZGBk0SSwMKlkiHIrjcV1wMo4TnS38jb580meSGi7chOuZDIB6WeoZltJ47EkqU8rtKEV+VyuW1IDzJEpKrcLewMvPaedh/o6/3u18Iun5DvvtdsCzLL1nDThPIvXS/aG33vB3/mlrKpXCadfToBDK2aZNFpZfZyZqZPabE79kNtzMpyyzvnBdfuAU9sLapmIREzv4NFnhd80C8omOV8ZvEsu/cfsd5oEHHjQCUBl+xGWKwyxGLIcAMOIJMz48YAEzGplkj1HfCVtdJkdmRizPnYxjcZrJuKfM7aFmylXoXVcGyInTBCnNdP9OEyEO3ZUFvYz+Fp/9yj5Doju8fg9uS+9wk+72h2POM3tcdxQXl32l3lkNOEulXJnXubfc4p30Tv5n3E0E06WA53SojWWTHcswVHiT36dNcqyMSTMc6oKrOZ6MjJv40CGs7Ds4b6F6dcE1y+hALrFcrkVyMZJrkVyMFhfLZcFOwWEOkEk/YqLRaQqiJW1cuXJkXrttYY7MGGqRYpukCUkOjT1txoHjVMu884rtK3M+aVtsQuJY9xrjqrBfDTQzpMn6mebpEd3FY7rOpWGf+5+xpHPzvYPu/7ykzUyWwn3WgDMrqat/kLIbyePf+mx/yO87ijKuXyLhbNNmQ9xUZiNlcC+o6RqJ8dpEuUBztiMZiqImOnDQBLvWzB5dzr8sJpb78RjI5l6U/Z5OiOXx2DS6sJit66OAhGzJOIrRY86Ol96tJtgQxhUsbJ+n9JtWaTp7UpG/6NEC7kmqlk5teb6tiV4DzcJpCOlorhfRvYUQk9e1Npktj8acL3DwlsJ7SZ9ZA85iKVbB84PB5M8IX37QYzz9bAl6ntlt/K48m364J8dTRHw5l3tJVZeIU54601WW+apsR5JaRJ4VoOOc615UPbHcNfOifgpIxpGFsHMPAZIKZAg21vMcqRGl51Euq8kSSaKKiPRsNEks6ek1M3fQ2u+FUEDeEZSP7oA3uRavlslH4vHDKZ/vyV2Oc7SQ63VODTgLpVQVzps61BTxtk+NOV5nCBVYWzKj5mSDWIupKh4iSS/KQGbmxomZ/6zBSVictaHxATQTQ4eNnyQjy7XNdy9SIo4gzuLSF4YAELkZ2agfbiCrgW32xhYTy9PW8rnJOEoRy9PDCSGJ+iLWvK6jFU4T3qZcwFSPqBUkgUxuvthEuzdwpEBJJD2p2r/zKCDDEQ4qOJY4L8P/4irUxh+gLPHN240V3fOwHemOasA5j6BL+Wd3KBQZD0Z2JxLJq3hSeGPKTyL9zOyDnRg24XaKaxXaWAzKuCTx3nWlj8uFnOg5J8dMoL230J6X9Lz5YrmScVjAtLMgPpWkHI0tZJWa8cnMPbn0/U9zrxGigZTAQ2K5RHLlwlTUz/xkHCWJ5ZkJQH+FyiodXAAR3ROQj23my/I+XaSERBtrgXsmI0z53Gt50zktrtb7LJlwfTjMN/Ny+yNf0rz6aa/zAW7uvxa7wVw7a7Hrat9XiAKD3/6nfjeZeqXH5/wtceu+We6Ep+oh+USgoZkUYxg7CnlSbFrFtE8fPwxwwr7muMaGYOIA33T+i42fTPTLpWUTy1UczSY7mTNJAWZX3wYwKR8qpa3lYzYZStwaf/BgsMafeWJ54ck45swh26/KfaraQHXtLYAmPIl2ZgWag9U/iavZyEUvJw4dI1NGMqlA37Uu0hRQuCbCAd6B5lae2k9iHvMvxLoP5aJPjePMRZklOt5+w+8eOPD1v/9lnc+/1/G4az2u47NZkwBBGXBik6PEMsO9FGL95qnbSEqyZFuPlVz3wNde0tgtp3LBC8VyEl8gls9verGotvg0yU4kqs++aGZPzCaWkxQFBlzuRS/ftTAZR+lieWZQCGpp6gM0m614XinQVMcJjEESz1O8QB0bAspgtVZRCigKL5ZShkHnRviNa7147T0xNvavWxobB7M5zNeAs6LkL60zX33TQ/HUxH/zO96bcd7eOR2JpXkpBHf5GE4PHsbIgGgaVhwyjzUnJ4PLxaQqqIrVzLa5UAZwrRe9ZnjTeZx26vVk2dyLTojlC+nJIiayh8gn9J0hfF1PsNVp9loiuURzaynnxTNXLJ+fjKMssXzu1AAzm92I2kBpTnPul2X8rhchpuBY1zqs6M+zT1TPr9aqQwFRNhEnvScO87hFfzjV0PjSR6bif8Xh++ePmF5t84/W/l5yCrh37vYNRnre7vd6LsJI9Cqf42mO4stptwmbRXHrcnAXUKhekTgt6TO1j8ASAFbyW8pMDx23Du7ZLEo6T+dPBNvM+qtfLc34kt9nZsC5YnkmGYeKowkYF2tSQ/hxvQqhbmhsVgo13ItIs2ejfpL5xfKik3EsOhm4dzhZJetQVFDul9piHS383uW+Ij2bTYzs/bHWPl56C8+pHakOBWymJaqcQPNvRBHfu7zmu12OM5u8YPFVWp151XrNQoFbbnmt96qma7q8jue9OGG/EjDsAEeayLrjkyghsJThR4k9bHIPGYHgSBS7ru8FnIpdn89tCoyCPo8ZmYqaj9xyt7no6heby154hdm6eWOWWVT/UDaxPF26ovCxBZ4+jCThxmaScZD+DdpEid+fG/VTWo7MwucgkFRKuHBrIy81rP0FgH6hvYvTTAQbzdjFLyc5Menv8LCotaWlgMAR7pOt5R7j489CXu/XVs+UJa4B59I+i4JGc+/8UuhwarI7GAlcQl2VP2VHrncTqTASYSBdNTO9icQ9WpDU58ym1YeOi7MSloKXAIzf7D02vOeWnz3Reft9TzWNTsXMX+/+gHnlDdcRorh0aciyieUy/pS3CHXz8iIgTBJwUdTPlVsWRv3Y94rIVbHGS0wJiJsaTV0rEoBuQlOpROMBJtHfTq87n3roW3i20qhVqvNKTPDM6UNBCx7H3QuA/vYmx/lR5s5rOs4MJZbRp3PVWyNMZ697002HhlZH7ok4vnqSy/0+GLgm4PO9EN4zyGsQ5tMJEPOcIhQiECMg1++jehUFbvwBnwcL8ihs6DTfH0nE418iaUX8q3c98k50ftswn/i++KWbTXtbi7n2qiuqfufz3YuUjENiOfOuwNh6QSi2PFWZZByFzMhitccagqR3BkLTb6tCrl3snPTb0Ja+iPZtVpxLLevRYjSr4vcsrQ+MB5y/v9BxZDyYbTXgnCXF8vvFecc7cNE1B9inznN3fulPMIW0JKOT7XVOnZKCvBg2C7hwL8c5+hFcdrYn48k7fX7PhbFo4tuUh9gWj8ZuTnkd/yqz9vHWt/xeasv25+31+DyfdV3P2qefftYcOHjYDJIgo72ttWo3Pz8ZhzjMoHSBFWhyR5qfI1NO7IuX4C1zcHDSF1QlSsRzgX8lmUFEhkjvFipU7oSLhRuvPKtc5s2fKZe7/9dJef5kW9h5LtsdlyclZeuxdqzqFEDXiTrNcQ/ddlPdE784HNu6ygR637F7avjOL7XseTI2ecGW1qBz1Y0TAlzxQpkJbTrv8k4nmfosf78olXRbmnHU/hAi+w3XXZ05pWKf88VyTUK1firR1FcmR+bSiOVzZg1HKGNQXU8Hxjl0zWUqGub0jJ6WOPS6JjN29nUm3tJdA825xFmi31lbj5uU867tIXOn9liuYWvAmYsyp+dxz6adl65HxP8++39tPB73vPv3f9u87PprKmYoyiWWV8pwcqIEb1vynP7WRCkleMt5tNJ5qRplXYcy6Fdw+7BFFYc+vfECSmBsJFVcnpSC5dxA7dpcFEjAj7wPZ43PkylelRDztpqonpc8p92XKXLYDceN8wW2/LuxZK+SrnPzpvVm4/q1cISlL4e57kWZZByVF8tTlU/GUcwjBtyCzU2EVM71Hy2mgxznSq+JbBBrX22mezdj66rpNXNQqjqHXfcLbsLzv3Y0OEcKHaD0nVLoCLXzlhUFHnnkZ8Prd17yRb/H+3oyxHRGolHfd777I6vnvOx5F5U014XuRelkHCV1Nu8iyUoZsfzabb2xLZ1N7g3b+wOZErzlR/3MGzDXn4Cb6gQpYbIjVwWBXUWa+nHx19xkpldvh4dlS9b0mhWhbAGdPMAL6z3bg557Czj3pFNqwHkSOc6IP9wpz/REs1v3AbR1N1FeYrWA84VXXFq0oWiuWC4ndrlK5Yv6KZa6c0vwVjQZR7ET4Xwl2Qi24K9JirjKgSaMJgCsImtxxPNUM3kDaqBZwtMp+hKqLjjvOeI3X7nKceT4XHSrAWfRJFv5Fxx96KHJhrMv/YXXdfezdTu9Xm/o45/8B9PU2FCQoSiXWB7IV+qjCLIpM5S4zHnJOKpvLc81R5hCXwDdZl0oHaVaKWYTJ3cl75g461ITb+6ugWYu+lfyuOP+rev3fGh7ngQehQxXA85CqHQanrPHHx3enAy+C3eXbwCcq4eGRzyPPf6U1XXmiyhaKJZnT8ZRKsmUYSjocd1XnLMm0dMQTr10e19AtX5iZHxeMrF8/uSZkwxCito64aMw/6Ti/xYXG2/sJBZ9DXrNWqq44ilYxBWOuYt6Cn+4M+B5sIircp5aGf+QnN3Xvli2FDh8ONW2al1SDhcYinYACo2/euhhs2PbVrNx4zpyXp68NORe9JGP/535yT0/Nz/5yc+tWB/AH9MrMKlEwzgiYCJW/zsXrek68Lrz19191eaedQGPR2H4AUQr69Io/yo740qMWUgfcL8q4xtW1iPpNivSlLzDNVMbzzORdWcbN0DawFqrDgVccxznvbduDzh/2u1zDldqkAr6U1RqSrV+lpACDoaiLgxF3weMtpEw2HfBeTvNhnXrzO/9zpvQWRrT3dVh/s8/f8089OvHzL33PmAyUT/gWIWmKcCkL8c9jH/qHZhgfl3njt10zx+/YcORsal+4vCfz7d94EybfqewXRCjVgtzIygqSRCUJNxKyc7Zb0l1g8Jd5MHM/nXRRzXdFJmdJrdeSnnfjcShq4vq3kPRkzwtLnA/5A94PoF7Ub6a2SXdaaXWQkmD1y469RTYsePKhrgncrkMRSDDBqPRhQAADuxJREFU6iRJQurCYdPf12vWrVtjHn/iKZPg2N59B6wDezkuS/Pv1oq+JGsiAug/wOG9k5H4pw4+ft/g3PNcEp+YR3c4e/s9uyh3XkchileTt3SKULjtAOhqOOb1JN9rJhGKmGfUtrpay5qjFQBUZXIPtTWT7AEOvBK7hYnL3Wj0/OupVEkGftQAtVZxCtxOXtv3nxVynqh4zzMdVmIpVGtutX6XiAIbz760y+uaf8c143ywJqSEGQKJZDJpASOJoUZx5ZVaLJbDNE4Mh+M7jCf1TNKNf/aZB+97spDbdXfv9vxi1SFvs6e326S8QZ+bujiV8hxH9n0NQIqROvUq8jj7iF8nrtMJuhzhuB9gnckgVcgoM+cAwrKkW2f3CoCwek2RHjBBobXxXVcZN9RYMwgV8TgKOHUv7g/v3BY039FSKOD8kk+p1F4oeQK1C5cBBS64wI+haAclGb4B2KxV+rrqtFmx/BcM8QBj3f7Ug3ffXu5YSsfXCVfavSrW6TeBVYq5AevP9jpOM3mTbkDHlQRMd8LZRvCY6oMbrZPrlNQNAtTsDR4cv81wZyuF15RBqkyacMMKqYx2bzTjO64wqQDGpjK7zD7vM/Wo84GpgFmQjKNa1KgBZ7Uou8L63XLBlR3k8vxHgOZKMKKz0uA5XyyfGkj99YEDP5uuJpn23PTR5sDk0VisnlxMvrb6VCzajQD/SriSEPzni1n8AyQNO8d1UuJP2hR3HkskYVDTetNAYx25NpuQrOV8Uj7KxakXFO3fZqbX7AA0EdGr9oKqJlWXW9/uvxiScWwPO3uXcmY14FxKai/vsTybzr6kF7v2vzHNswFO2KzywaIcsbzS5Lrlllu8N954Y/LZL+0ODcYOJduSvaTYS7YmHecKatv7gbJWwPMSdKir0Fb0+9uaXX9D2O6Rsl4k+GsScmSTd8Q613BbtW1XgWf7KO+7d5G96K4K9FV0F7UnWDTJTucLLvCv3R7YSfKfP8CC/VvprPKl3a+1uot1c9wZsTyFWP6zssXy0maT9yoHvalz6yOPOBe+6tyO5Li/wUlEXx+qpwJUXeiyuuY6kmI6qzHiByTWn2ASC3+pSK8ZITJoessl6DhJRVf4pXknfoZ+ST0Z570UgP1CIck4qkWjGnBWi7IruN+tZ1/5mpST+HN8DVfDHLUVx23N6jGtexGi8K+nBpOfrbZYXklySx151wd3e8+5bEOv40bWU7biXdQolv/TheQ9XYvRzCMdqU1gnI8rByCl14ys2myjg9wg/ponkLeSUz4z+nLdf0qSjGNXg3P0VN9wDThP9RNYjuNjLDo73tgddeP/2/U6v4FhmozzZibPWW52SQWu8MOMgg3fdTypX2dzL1qOt5tvTgJRc9du7/hwR3MiHLw+kUrKKf8qALSdb3YAoD6Fh+ZSayQa2kxkzU4T6d9eA818hM7zHSB1P1ro9+wIOD/Pc9qSflUDziUl94oazNm0/bLtuCF143z+bgzTVzJ78qk5St+O0s7Fg8llPYsVc1X9T4V3cKRPPWy8zg+f/NVPv82x065RzsR/vDUR9NQ5z3O8vg94PaYbcN3AT30K962MjV7F1lLegHU7inWvh2wyBp125Kj2DY2j8lEyjpuvKjEZR7UmWAPOalH29OnX2XHe5duIzdwILlzscVOHAMiXUR9tGuBcDRjgZOwN4Hn+haTPcWPD+3/63HPPqWbSad3cW3YHnps0no7VPRtiMe91+Me/Di50Fz6vfkz0gRjV2yK4Hk2RmDgVaoIWNdQsakE47qdJxvHXO8pMxlHUmEWcXAPOIoh1hp+qteKuW3dlqLUv3jY1MDAeDYe9iYFwFP0lQHkloTV3lZSia6XT9RFAtK9tc78nORGght5fOMnkhdPtvetGz77On/CTUakCqeLkKmXBF4NbcTrnlUVd3jd3el3nD88KOg8t55nXgHM5P53a3FYUBRTVdPyizq6pLZevd1s6PhZp7rkcEb6spg0ql654Auf5aAy+lQJ1sbjN1l9fF1bieCD1NNjGjjlKJNm7twfMvyOe2+j9sghX5YtPA4pXmUK17msUKIICu4nwfEMi9RGKN/9BMilf2NKbXLrkEjY8Oqa0emZoeNRmo0qkEibg95OExTWtzQ2mvaXZ/l2J2PzSZ1v6lbwM/spLMo6zHGe89F6W9spaPs6lpXdttNOcAr81YpqiDZ5wwGtCSZI3laPbjAOWE5NT5tjAkInGqRSFHJsUMwYXG0nGMES5ZmiIxD/83UwS6jCJlnGZWjEUZqa3KRnH9pCnoDwFy+nGasC5nJ5GbS4rnwJ+E/Ib9xKk6tLbjPg9OTVtDh05Ttx9ClucPZjuc0ZOBHTIXJU0xweGbdmSHuVHlQ609JGX6spnEcvftT1o7oCrXgHTXUiWGnAupEntSI0CJVNgOmh2kUcq7sFUhqheWj9clkQcH52YBDSTuXWYMwAqEX1kbMImn+7pbF/mxiPnA40B8/+udpyq5ikojfCFX1UDzsJpVTuzRoFFKeBNxfZ7fP6zYQRLbtJtjk9Mm+kpnBXgKhez/eh8ifXShyos1OPlmhIxu+RJL3qh+zUCrj6wq87Zv+ipK+CEWhbVFfCQalNcORTwOJSsdJyf+/0z7GCJU08hnkdjscUwc7Z3ifIjo+Nwm7jgLy/QfASvgCu3B71vOF1AU0SvAefs0qv9UqNA+RTY5DcPpZJuF7hH0qXS+pOfpsRv62ZUYB8kbDZ+0t/JOLRM3JOwZjnvcgPO+dv8zo9Lo8TyvaoGnMv32dRmtgIpgNd2yE2lPgHrF5UIXVpz0kXwZDcplHtEpBeXKku7/juVDeD/fDLurKZA2j8S+VOOmexU3kbesWvAmZc8tS9rFCiOAuc4zqTH8f4axeTDAFginY+0uD6Et16C4IOBICrOwkBQEN3e3mK5zuJGq+jZ95Ft/5IdIe87lkMGo4re2bzOasA5jyC1P2sUKJcCT+81jyFpvx/XoHEPNeKL5Tslqjc01FPnSUI3V+fDTr4Th+kBaEO4IxEvX+70S7l+DLH8LUcDzmVkMLqvlA5W2jXFPtOVdn+1+dYocEoosMd1m8k29zaSn9zgeJ0XESVZlJuQwHBqOmqOHB0wE9PTaT9OAejcHTsDmn6iiNpbW0xHG2U+lhg44Yg/mfR7Pny24wyfEkKfokFr7kiniPC1YU9vCmx0nFHu8FOPRhMHfY53M9mTOuA9KRLHUTjKxZo4zYZwyDQ11ROnHrc+oao6apvlYekDEA14/aahPmw62lXC2CZbXqzrynzvmB8SyfTe7QHPw5XpcGX1Mvf9tbJmXpttjQIrgAL7XTc8EYl0e/yhv/R7zX+PKn8UwFkAdlrmUhAbI9xydGTcDIyM2cigGABaB6i6oHAXVTjD/O5T3felaCTjADDfeVbA/AfGrzK8VZdistUbowac1aNtrecaBWYp8HjcvQrt41UA4aup6bQ9EpMwvnizOk52qSzmapFo1FAPCkf3NHjqmMRz21shHeqCEhtjfJBkHJ9cSck4SrzVRS+rAeeiJKqdUKNA+RTA4OPcCsadnTDvZ9O9BrehXT6vE4zHi0M7WellPBKg6nMpGvP9JtMnGYfz1FKMtxLGqAHnSnhKtTmeNhR4xHUDzcZ0TSbczwGcV8cSblg3t0QYWBQdgeVnSCTyzrOC5nuI5UuD0kXN8NSdXAPOU0f72shnKAXgFD1PxMxO/DUvdrzun+K2tCFaJOdZbdLBYf5RU9D8w0pPxlEtOtWs6tWibK3fGgVyUADuTQrLh54adJ8zTU678Zq3er3OWrjOUDm17HMMV9Rh9JhfTZCM45w650BRF55hJ9c4zjPsgddud3lRQKI7ZUN3kILugwGvcxX+ng0y9Pz/7d09a1NRGADgc9MmtloVXAQXRSjUlKLOgtgOBX+Dv8BvBweHooN7BzcXFxdXf4HgIA6dxNqirQiCSAdRUfqV9PiGfiwdLDHRxDwHQkJy7+Hc54RDTs573vsPpu6vY9XparVcPO8soc5sjYGzM/tFq3pIIKbuxYeUji6vp8n+vjQV6z/Da39v6h435CxupnJ69L/uK2/HV8nA2Q5VdRJoQuBTzvt/1tKNoi9diCRH5+MxGJmWmqhpb6cUOT9cWy/dPX2wWNrbGY7aFjBwbkt4JtABAjM5l/u+pxMDg/lxpVyMRrjSUPwg3YzTbF37XpaK4vpIpZhpXZW9VZOBs7f629V2gUBj6r6Q0snYMHSuUk4PosmH1yJgvgXlW0SAXluqpCfjRdHYw6Q0KWBVvUk4pxFol8BWzOTiq6/5S2kwjfWX05nIKD8Rm4dKzd7HqFeTcbStj9pVsXoJEPhzgdnZXClX09mNWp4ulYqRWG4/0kgUsudV90jGEUk9b1X3FZEjVGmVgKl6qyTVQ6BNAjF174+gykPLtXQ5bq5+J2byByLe83dbeT5H+qQrpzaTcWxudG9T+3qxWgNnL/a6a+5KgffL+XitXB+PrB6X4lfkROT5iDTJu//7jH3s9zYqaTrCi3505YV2QaMNnF3QSZpIYFugsXA0t1q/2F8qTUWOubG4qeVQPeKWtsrT+Pj26EBjbUkhQIAAgR2BZzF1n8/52Pxq/f7b2sbqm7W8MLeSJxuD6s5BXhAgQIDAboHFlTz8Lufqi4+bGZZ2H+EdAgQIECBAgAABAgQIECBAgAABAgQIECBAgAABAgQIECBAgAABAgQIECBAgAABAgQIECBAgAABAgQIECBAgAABAgQIECBAgAABAgQIECBAgAABAgQIECBAgAABAgQIECBAgAABAgQIECBAgAABAgQIECBAgAABAgQIECBAgAABAgQIECBAgAABAgQIECBAgAABAgQIECBAgAABAgQIECBAgAABAgQIECBAgAABAgQIECBAgAABAgQIECBAgAABAgQIECBAgAABAgQIECBAgAABAgQIECBAgAABAgQIECBAgAABAgQIECBAgAABAgQIECBAgAABAgQIECBAgAABAgQIECBAgAABAgQIECBAgAABAgQIECBAgAABAgQIECBAgAABAgQIECBAgAABAgQIECBAgAABAgQIECBAgAABAgQIECBAgAABAgQ6SeAXRuw1LTIdOAwAAAAASUVORK5CYII=;" vertex="1" parent="1">
                    <mxGeometry x="1607.005" y="262.005" width="334" height="364" as="geometry"/>
                </mxCell>
                <mxCell id="56" value="Action Group" style="text;strokeColor=none;align=center;fillColor=none;html=1;verticalAlign=middle;whiteSpace=wrap;rounded=0;strokeWidth=2;fontColor=#000000;fontSize=16;" vertex="1" parent="1">
                    <mxGeometry x="1112.99" y="215" width="225.25" height="30" as="geometry"/>
                </mxCell>
            </root>
        </mxGraphModel>
    </diagram>
</mxfile>